<?xml version="1.0" encoding="UTF-8"?>
<svg width="600px" height="339px" viewBox="0 0 600 339" version="1.1" xmlns="http://www.w3.org/2000/svg" xmlns:xlink="http://www.w3.org/1999/xlink">
    <!-- Generator: Sketch 54.1 (76490) - https://sketchapp.com -->
    <title>Illy</title>
    <desc>Created with Sketch.</desc>
    <g id="Illy" stroke="none" stroke-width="1" fill="none" fill-rule="evenodd">
        <g id="Spot-–-Inspect-public-share-link" transform="translate(1.000000, 0.000000)">
            <g id="Layer_1">
                <path d="M593.75,313.08 C594.044492,303.154448 591.988595,293.299845 587.75,284.32 C577.94,263.9 557.69,249.85 548.44,229.17 C538.6,207.17 542.87,181.57 549.17,158.29 C555.47,135.01 563.7,111.41 561.22,87.42 C557.79,54.12 533.13,25.34 502.75,11.28 C469.24,-4.24 428.55,-3.29 395.75,13.79 C363.34,30.7 340.52,61 315.79,88 C290.48574,115.569038 262.294121,140.341053 231.7,161.89 C199,184.89 161.84,204.68 121.86,205.51 C98.93,205.98 71.86,201.66 56.67,218.82 C44.43,232.64 46.62,253.58 41.81,271.4 C36.96,289.4 23.81,304.82 7.19,313.12 L593.75,313.08 Z" id="Path" fill="#F2F5F8" fill-rule="nonzero"></path>
                <path d="M21.88,313.08 L578.75,313.08" id="Path" stroke="#CDD2DD" stroke-width="3" stroke-linecap="round" stroke-linejoin="round"></path>
                <path d="M597.44,313.08 L586.75,313.08" id="Path" stroke="#CDD2DD" stroke-width="3" stroke-linecap="round" stroke-linejoin="round"></path>
                <path d="M13.13,313.08 L0.5,313.08" id="Path" stroke="#CDD2DD" stroke-width="3" stroke-linecap="round" stroke-linejoin="round"></path>
                <rect id="Rectangle" fill="#DFE4EA" fill-rule="nonzero" x="129" y="25" width="340.69" height="251.1" rx="10.03"></rect>
                <rect id="Rectangle" fill="#E8ECF0" x="138" y="47" width="323" height="221" rx="3"></rect>
                <rect id="Rectangle" fill="#E43A70" fill-rule="nonzero" x="258.71" y="180.93" width="81.77" height="30.7" rx="15.35"></rect>
                <path d="M249.59,196.28 L139.64,196.28" id="Path" stroke="#E43A70" stroke-width="3.65"></path>
                <rect id="Rectangle" fill="#596377" fill-rule="nonzero" x="175.49" y="188.8" width="38.25" height="14.96" rx="2.99"></rect>
                <rect id="Rectangle" fill="#FF88B1" fill-rule="nonzero" x="146.97" y="55.52" width="28.13" height="28.13" rx="3.55"></rect>
                <path d="M249.59,201.03 L249.59,191.54" id="Path" stroke="#E43A70" stroke-width="3.65"></path>
                <path d="M139.64,201.03 L139.64,191.54" id="Path" stroke="#E43A70" stroke-width="3.65"></path>
                <path d="M459.91,24.81 L139.27,24.81 C133.747153,24.81 129.27,29.2871525 129.27,34.81 L129.27,39.51 L469.94,39.51 L469.94,34.81 C469.940012,32.1526291 468.882326,29.604533 467.000469,27.7283044 C465.118612,25.8520759 462.567359,24.8020279 459.91,24.81 L459.91,24.81 Z" id="Path" fill="#8A92A3" fill-rule="nonzero"></path>
                <circle id="Oval" fill="#FFFFFF" fill-rule="nonzero" cx="149.33" cy="32.18" r="3.64"></circle>
                <circle id="Oval" fill="#FFFFFF" fill-rule="nonzero" cx="160.04" cy="32.18" r="3.64"></circle>
                <circle id="Oval" fill="#FFFFFF" fill-rule="nonzero" cx="170.75" cy="32.18" r="3.64"></circle>
                <path d="M278.04,196.28 L321.14,196.28" id="Path" stroke="#FFFFFF" stroke-width="3.65" stroke-linecap="round"></path>
                <path d="M299.72,49.56 L299.72,172.43" id="Path" stroke="#E43A70" stroke-width="3.65"></path>
                <rect id="Rectangle" fill="#596377" fill-rule="nonzero" x="280.47" y="103.51" width="38.25" height="14.96" rx="2.99"></rect>
                <path d="M295.14,49.56 L304.62,49.56" id="Path" stroke="#E43A70" stroke-width="3.65"></path>
                <path d="M295.14,172.43 L304.62,172.43" id="Path" stroke="#E43A70" stroke-width="3.65"></path>
                <path d="M288.7,110.99 L310.49,110.99" id="Path" stroke="#FFFFFF" stroke-width="3.65" stroke-linecap="round"></path>
                <path d="M299.59,217.99 L299.72,264.5" id="Path" stroke="#E43A70" stroke-width="3.65"></path>
                <rect id="Rectangle" fill="#596377" fill-rule="nonzero" x="280.47" y="233.16" width="38.25" height="14.96" rx="2.99"></rect>
                <path d="M295.01,217.99 L304.5,217.99" id="Path" stroke="#E43A70" stroke-width="3.65"></path>
                <path d="M295.01,266.29 L304.5,266.29" id="Path" stroke="#E43A70" stroke-width="3.65"></path>
                <path d="M288.7,240.64 L310.49,240.64" id="Path" stroke="#FFFFFF" stroke-width="3.65" stroke-linecap="round"></path>
                <path d="M183.72,196.28 L205.51,196.28" id="Path" stroke="#FFFFFF" stroke-width="3.65" stroke-linecap="round"></path>
            </g>
            <g id="Layer_5" transform="translate(100.000000, 107.000000)">
                <path d="M283.33,104.58 C282.47,102.72 280.6,101.84 278.72,101.36 C276.520552,100.825267 274.552787,99.5940984 273.11,97.85 C271.49,95.97 270.32,93.74 268.85,91.74 C268.191771,92.0253734 267.76422,92.6725843 267.76,93.39 C267.61,95.87 269.45,98.26 270.3,100.46 C270.427442,100.738943 270.489029,101.043457 270.48,101.35 C270.413107,101.671891 270.265094,101.971358 270.05,102.22 C269.32032,103.178074 268.450576,104.02085 267.47,104.72 C267.131939,104.991962 266.734522,105.180392 266.31,105.27 C265.973967,105.299203 265.635418,105.268734 265.31,105.18 C263.856338,104.85902 262.453358,104.340893 261.14,103.64 C260.593324,103.378282 260.101285,103.015191 259.69,102.57 C259.36648,102.150272 259.11319,101.680842 258.94,101.18 C258.518242,100.124586 258.167461,99.0421765 257.89,97.94 C257.800415,97.6421124 257.769844,97.3296014 257.8,97.02 C257.92,96.35 258.57,95.93 259.14,95.55 C260.590956,94.7122805 261.728629,93.42362 262.38,91.88 C262.57,91.34 262.53,90.54 261.97,90.4 C261.6,90.31 261.25,90.59 260.97,90.81 C258.71,92.43 255.28,92 253.4,94.05 C252.416426,95.2642556 251.981759,96.8326778 252.2,98.38 C252.422856,99.9058171 252.729992,101.41813 253.12,102.91 C253.278188,104.0625 253.556365,105.195317 253.95,106.29 C254.469893,107.328941 255.144213,108.283105 255.95,109.12 C257.215142,110.731958 258.676424,112.179803 260.3,113.43 C261.938925,114.693718 263.985857,115.309577 266.05,115.16 C268.84,114.83 271.05,112.69 273.79,111.91 C275.369157,111.575624 276.969703,111.351748 278.58,111.24 C280.202505,111.127468 281.724866,110.414418 282.85,109.24 C283.867466,107.898105 284.052563,106.101126 283.33,104.58 Z" id="Path" fill="#454D5E" fill-rule="nonzero"></path>
                <path d="M357.92,17.55 C349.24,20.63 344.92,27.44 345.21,33.78 C345.37,37.11 346.8,40.25 347.54,43.51 C348.11,45.98 348.29,48.56 349.27,50.9 C350.59,54.09 353.27,56.55 354.67,59.7 C355.46,61.49 355.92,63.61 357.54,64.7 C359.16,65.79 361.07,65.51 362.8,64.92 C365.652228,63.8241639 368.27156,62.1989565 370.52,60.13 C377.31,54.33 382.86,46.88 382.99,38 C383.05,33.61 381.36,26.7 379.79,24 C377.05,19.21 369.46,13.9 357.92,17.55 Z" id="Path" fill="#454D5E" fill-rule="nonzero"></path>
                <path d="M355.09,53.52 C353.247731,54.4486815 351.238315,54.9994861 349.18,55.14 C348.64,55.14 347.99,55.14 347.73,54.64 C347.603057,54.3504318 347.574944,54.0271333 347.65,53.72 C348,50.99 348.32,48.27 348.7,45.55 C348.947528,44.0044897 349.094504,42.4445454 349.14,40.88 L350.99,40.15 L355.09,53.52 Z" id="Path" fill="#454D5E" fill-rule="nonzero"></path>
                <path d="M401.29,67.58 C401.24,67.73 401.2,67.88 401.15,68.03 C399.15,74.03 392.65,78.47 386.53,79.19 C384.000482,79.5472002 381.427833,78.9636394 379.3,77.55 C378.689482,77.0976683 378.1114,76.6031245 377.57,76.07 L374,72.66 C372.71,71.45 371.5,70.17 370.32,68.85 C369.14,67.53 368.01,65.85 366.74,64.49 C365.261451,63.1114081 364.000455,61.5166198 363,59.76 C362.073271,57.6380133 361.90381,55.2620314 362.52,53.03 C363.137348,50.8175676 364.154071,48.7366761 365.52,46.89 C367.082623,44.5556542 369.054318,42.5229783 371.34,40.89 C373.643915,39.2559269 376.377006,38.3344648 379.2,38.24 C379.654547,38.2059194 380.110639,38.2813631 380.53,38.46 C381.53,38.95 381.2,40.38 381.36,41.29 C381.547713,42.3896181 381.863182,43.4635566 382.3,44.49 C383.182716,46.5708173 384.444091,48.4696615 386.02,50.09 C388.917129,52.9166929 392.306035,55.1906484 396.02,56.8 C396.99496,57.2103639 397.923515,57.7232479 398.79,58.33 C401.44,60.37 402.24,64.31 401.29,67.58 Z" id="Path" fill="#454D5E" fill-rule="nonzero"></path>
                <path d="M365.34,78 L364.23,131 C364.11,136.94 363.99,142.94 365.17,148.77 C368.48,165.18 381.91,178.2 397.28,184.84 C403.22,187.41 409.66,189.2 416.12,188.76 C422.58,188.32 429.12,185.42 432.8,180.12 C434.322969,177.812172 435.495695,175.291484 436.28,172.64 C439.28,163.48 440.4,153.79 440.89,144.16 C441.353122,137.986631 441.118304,131.78072 440.19,125.66 C438.71,117.35 435.13,109.59 431.6,101.93 C429.6,97.63 427.6,93.34 425.39,89.18 C421.526058,81.9856045 416.910262,75.2211332 411.62,69 C407.67,64.37 403.24,60 397.79,57.27 C392.34,54.54 385.7,53.74 380.17,56.27 C375.23,58.55 371.92,63.21 368.6,67.51 C365.28,71.81 365.34,78 365.34,78 Z" id="Path" fill="#FFFFFF" fill-rule="nonzero"></path>
                <path d="M416.12,188.71 C422.58,188.28 429.12,185.37 432.8,180.07 C427.97,186.28 421.12,187.31 415.03,186.15 C400.91,183.45 392.33,167.59 401.31,154.33 C405.86,147.63 407,139.69 405.58,131.61 C402.27,112.74 388.49,102.75 381.01,89.26 C375.6,79.5 379.01,76.12 380.69,67.64 C381.373133,63.7971602 381.477622,59.8737533 381,56 C380.73,56.1 380.46,56.22 380.19,56.34 C375.25,58.62 371.94,63.28 368.62,67.58 C365.3,71.88 365.34,78 365.34,78 L364.23,131 C364.11,136.94 363.99,142.94 365.17,148.77 C368.48,165.18 381.91,178.2 397.28,184.84 C403.22,187.36 409.66,189.15 416.12,188.71 Z" id="Path" fill="#BAC1CF" fill-rule="nonzero"></path>
                <path d="M338.11,112.51 C337.173732,110.349298 335.609323,108.520089 333.62,107.26 C331.4,106.01 328.75,105.87 326.2,105.76 C322.38,105.593333 318.556667,105.396667 314.73,105.17 L312,118.05 C318.847639,119.531045 325.77618,120.60956 332.75,121.28 C334.3,121.41 335.98,121.49 337.28,120.64 C338.511741,119.751915 339.232257,118.318349 339.21,116.8 C339.184932,115.303511 338.808112,113.833914 338.11,112.51 L338.11,112.51 Z" id="Path" fill="#FFFFFF" fill-rule="nonzero"></path>
                <path d="M326.2,105.76 C322.38,105.593333 318.556667,105.396667 314.73,105.17 L312,118.05 C317.15,119.12 322.32,120.05 327.54,120.72 C329.71224,120.484357 331.812601,119.803527 333.71,118.72 C335.611035,117.487877 337.31665,115.977767 338.77,114.24 C338.576392,113.661021 338.342487,113.096307 338.07,112.55 C337.133732,110.389298 335.569323,108.560089 333.58,107.3 C331.4,106 328.75,105.87 326.2,105.76 Z" id="Path" fill="#BAC1CF" fill-rule="nonzero"></path>
                <path d="M314.35,105.15 C306.456667,104.696667 298.566667,104.146667 290.68,103.5 C286.74,103.17 282.8,102.83 278.87,102.45 C277.61,102.33 276.11,101.83 274.87,102.16 C273.19,102.6 272.57,104.09 272.53,105.7 C272.511441,106.095099 272.538283,106.491022 272.61,106.88 C272.859459,108.007113 273.537155,108.993178 274.5,109.63 C276.22,110.81 278.7,110.92 280.7,111.29 C283.1,111.72 285.5,112.2 287.89,112.7 C295.94,114.4 303.96,116.38 312.04,118.05 L314.73,105.17 L314.35,105.15 Z" id="Path" fill="#454D5E" fill-rule="nonzero"></path>
                <path d="M323,74.79 C323.102957,76.0604712 323.76172,77.2206272 324.8,77.96 C325.541019,78.3172875 326.357851,78.4888907 327.18,78.46 C328.3,78.46 329.42,78.46 330.54,78.46 C331.66942,78.2624328 332.83246,78.4527485 333.84,79 C334.33771,79.4218007 334.737056,79.9474359 335.01,80.54 C336.414377,83.1348672 337.454173,85.9110216 338.1,88.79 C338.57,90.91 338.82,93.07 339.31,95.19 C339.720539,97.3259128 340.579438,99.3504607 341.83,101.13 C343.105998,102.921538 345.076675,104.093782 347.26,104.36 C349.17,104.52 351.65,103.56 352.42,101.66 C353.3,99.48 353.99,97.57 353.36,95.18 C352.715104,93.1543114 351.734823,91.2512143 350.46,89.55 C347.53055,85.2025118 344.37279,81.0133055 341,77 C340.523543,76.3732564 339.95355,75.8234997 339.31,75.37 C337.923802,74.680689 336.369099,74.4030635 334.83,74.57 L323.35,74.77 L323,74.79 Z" id="Path" fill="#454D5E" fill-rule="nonzero"></path>
                <polyline id="Path" stroke="#E43A70" stroke-width="3.65" stroke-linecap="round" points="315.23 94.18 246.41 94.18 246.41 89.47"></polyline>
                <path d="M311.7,96.3 L341.12,96.3 L334.72,78.41 L328.89,78.41 C321.964292,78.4117863 315.847029,82.923724 313.8,89.54 L311.7,96.3 Z" id="Path" fill="#FF88B1" fill-rule="nonzero"></path>
                <path d="M343.75,105.33 C341.360388,104.753262 339.123002,103.668675 337.19,102.15 C336.647404,101.723865 336.136091,101.259338 335.66,100.76 C335.16,100.21 334.72,99.61 334.27,99.02 C331.66,95.5 329.03,91.9 327.57,87.76 C327.32408,87.1568145 327.198392,86.5113884 327.2,85.86 C327.182459,85.4762456 327.34522,85.1063331 327.64,84.86 C328.1,84.56 328.7,84.86 329.17,85.09 C331.081447,86.1923956 332.842656,87.5368296 334.41,89.09 C335.01,89.69 335.59,90.31 336.16,90.94 L340.6,95.76 C341.554925,96.7588174 342.453006,97.8104731 343.29,98.91 C344.137488,100.047567 344.811494,101.304588 345.29,102.64 C345.451502,103.043244 345.526455,103.475929 345.51,103.91 C345.494627,104.352935 345.257993,104.758593 344.88,104.99 C344.563242,105.118036 344.218965,105.162792 343.88,105.12" id="Path" fill="#454D5E" fill-rule="nonzero"></path>
                <path d="M366.66,68.28 C371.134497,66.5005285 376.195719,67.0156086 380.22,69.66 C387.66,74.49 389.85,84.96 386.07,90.72 C384.61,92.95 382.34,94.5 380.12,95.98 C369.12,103.35 358.07,110.74 346.5,117.24 C342.94,119.24 339.33,120.91 335.18,121.12 C333.9582,121.238471 332.725327,121.084789 331.57,120.67 C329.27,119.73 327.9,117.25 327.52,114.79 C326.76,109.79 331.08,106.45 334,103.09 L345,90.38 C359.76,73.43 361.91,70.29 366.66,68.28 Z" id="Path" fill="#FFFFFF" fill-rule="nonzero"></path>
                <path d="M419.17,195.14 C416.69,191.59 415.74,190.77 412.05,188.5 C409.703498,186.899934 407.145598,185.634446 404.45,184.74 C403.391378,184.441598 402.299544,184.276983 401.2,184.25 C392.73,177.25 374.59,164.25 357.2,153.63 C354.41,151.92 351.46,150.2 348.2,149.96 C343.968875,149.774331 339.963741,151.874259 337.71,155.46 C333.59,161.94 334.33,172.18 344.12,177.46 C377.72,191.62 388.94,196.46 393.98,198.4 C394.213333,202.8 394.313333,207.206667 394.28,211.62 C394.320154,212.19748 394.224251,212.776326 394,213.31 C393.67231,213.827677 393.222461,214.256923 392.69,214.56 L384.42,220.16 C383.948871,220.41044 383.57556,220.811925 383.36,221.3 C383,222.5 384.56,223.3 385.8,223.56 C388.967156,224.149423 392.196749,224.330899 395.41,224.1 C396.873976,224.062727 398.31431,223.722223 399.64,223.1 C402.38,221.66 403.64,218.49 405.01,215.74 C407.815371,210.312979 412.082803,205.778832 417.33,202.65 C418.7,201.83 420.27,200.95 420.66,199.4 C421.05,197.85 420.06,196.41 419.17,195.14 Z" id="Path" fill="#2F3849" fill-rule="nonzero"></path>
                <path d="M368,227.43 C367.516779,223.694265 366.686523,220.011681 365.52,216.43 C364.91,214.32 364.22,212.11 362.71,210.55 C361.3,206.2 359.59,201.91 358.32,197.55 C355.81,189 353.97,180.26 351.48,171.7 C349.866667,166.12 347.986667,160.63 345.84,155.23 C343.1,148.34 339.96,140.23 334.96,134.59 C330.29659,129.560468 324.278151,125.986912 317.63,124.3 C311.13,122.65 308.28,125.09 307.74,130.35 C307.04,137.09 309.38,141.71 311.96,146.71 L347.6,215.54 C346.38,216.54 345.11,217.54 343.85,218.44 C339.124853,221.900286 333.997402,224.774613 328.58,227 C327.48,227.44 326.16,228.19 326.28,229.37 C326.4,230.55 327.72,230.98 328.82,231.17 C334.75,232.17 340.82,231.17 346.82,230.67 C351.24,230.29 355.67,230.17 360.11,230.13 C362.93,230.06 368.4,231.59 368,227.43 Z" id="Path" fill="#192234" fill-rule="nonzero"></path>
                <path d="M368,227.43 C367.516779,223.694265 366.686523,220.011681 365.52,216.43 C364.91,214.32 364.22,212.11 362.71,210.55 C361.3,206.2 359.59,201.91 358.32,197.55 C355.81,189 353.97,180.26 351.48,171.7 C349.866667,166.12 347.986667,160.63 345.84,155.23 C344.64,152.23 343.36,148.95 341.89,145.78 L334.7,153.07 C346.89,172.18 350.28,195.43 358.21,216.67 C359.7,220.67 361.38,224.72 361.36,228.99 C361.36,229.36 361.36,229.75 361.36,230.14 C364.25,230.36 368.35,231.05 368,227.43 Z" id="Path" fill="#454D5E" fill-rule="nonzero"></path>
                <path d="M420.62,199.42 C420.99,197.91 420.06,196.42 419.17,195.14 C416.69,191.59 415.74,190.77 412.05,188.5 C411.32,188.04 410.58,187.59 409.83,187.16 C409.03,190.45 409.31,194.41 406.42,196.27 C403.06,198.44 398.58,195.34 393.83,198.38 L393.94,198.38 C394.173333,202.78 394.273333,207.186667 394.24,211.6 C394.280154,212.17748 394.184251,212.756326 393.96,213.29 C393.63231,213.807677 393.182461,214.236923 392.65,214.54 L384.38,220.14 C383.908871,220.39044 383.53556,220.791925 383.32,221.28 C382.96,222.48 384.52,223.28 385.76,223.54 C388.927156,224.129423 392.156749,224.310899 395.37,224.08 C396.833976,224.042727 398.27431,223.702223 399.6,223.08 C402.34,221.64 403.6,218.47 404.97,215.72 C407.775371,210.292979 412.042803,205.758832 417.29,202.63 C418.66,201.85 420.23,201 420.62,199.42 Z" id="Path" fill="#454D5E" fill-rule="nonzero"></path>
                <path d="M368,227.43 C367.516779,223.694265 366.686523,220.011681 365.52,216.43 C365.177154,215.156336 364.732386,213.912323 364.19,212.71 C363.949402,212.859073 363.73065,213.040805 363.54,213.25 C362.744386,214.342589 362.195103,215.59468 361.93,216.92 C361.656387,218.258383 360.82771,219.417805 359.65,220.11 C358.27,220.72 356.65,220.11 355.39,219.27 C354.13,218.43 352.85,217.4 351.49,216.61 C350.310028,215.86581 348.945026,215.467396 347.55,215.46 L347.55,215.55 C346.33,216.55 345.06,217.55 343.8,218.45 C339.089985,221.903284 333.979532,224.774136 328.58,227 C327.48,227.44 326.16,228.19 326.28,229.37 C326.4,230.55 327.72,230.98 328.82,231.17 C334.75,232.17 340.82,231.17 346.82,230.67 C351.24,230.29 355.67,230.17 360.11,230.13 C362.93,230.06 368.4,231.59 368,227.43 Z" id="Path" fill="#454D5E" fill-rule="nonzero"></path>
                <path d="M368,227.43 C367.516779,223.694265 366.686523,220.011681 365.52,216.43 C365.177154,215.156336 364.732386,213.912323 364.19,212.71 C363.949402,212.859073 363.73065,213.040805 363.54,213.25 C362.744386,214.342589 362.195103,215.59468 361.93,216.92 C361.656387,218.258383 360.82771,219.417805 359.65,220.11 L359.51,220.17 C360.636509,222.983039 361.262599,225.97135 361.36,229 C361.36,229.37 361.36,229.76 361.36,230.15 C364.25,230.36 368.35,231.05 368,227.43 Z" id="Path" fill="#8A92A3" fill-rule="nonzero"></path>
                <path d="M309.52,125 C311.7,121.63 316.09,120.41 320.1,120.34 C329,120.2 338,124 367.62,137.08 L387.72,145.99 C395.44,149.42 403.34,152.99 409.39,158.86 C415.44,164.73 419.33,173.61 417.08,181.75 C416.510027,184.005302 415.362338,186.07321 413.75,187.75 C405.23,196.19 388.46,189.54 379.37,185.51 C367.94,180.44 345.3,167.4 324.42,150.46 C320.53,147.3 313.99,143.6 310.99,139.56 C308.21,135.83 306.88,129.05 309.52,125 Z" id="Path" fill="#454D5E" fill-rule="nonzero"></path>
                <path d="M309.52,125 C311.7,121.63 316.09,120.41 320.1,120.34 C329,120.2 338,124 367.62,137.08 L387.72,145.99 C395.44,149.42 403.34,152.99 409.39,158.86 C415.44,164.73 419.33,173.61 417.08,181.75 C416.510027,184.005302 415.362338,186.07321 413.75,187.75 C405.23,196.19 388.46,189.54 379.37,185.51 C367.94,180.44 345.3,167.4 324.42,150.46 C320.53,147.3 313.99,143.6 310.99,139.56 C308.21,135.83 306.88,129.05 309.52,125 Z" id="Path" fill="#454D5E" fill-rule="nonzero"></path>
                <path d="M413.75,187.75 C414.236286,187.25746 414.681126,186.725658 415.08,186.16 L415,186.16 C400.88,183.46 392.3,167.6 401.28,154.34 C401.54,153.96 401.78,153.58 402.02,153.2 C397.415753,150.471191 392.62757,148.065404 387.69,146 L367.59,137.09 C338,124 329,120.2 320.1,120.34 C316.1,120.41 311.7,121.63 309.52,125 C306.88,129.05 308.21,135.83 310.99,139.56 C313.99,143.56 320.18,148.56 324.07,151.73 C328.67,155.47 333.7,157.73 338.33,161.04 C354.73,172.76 370.46,181.56 379.33,185.51 C388.46,189.54 405.23,196.19 413.75,187.75 Z" id="Path" fill="#192234" fill-rule="nonzero"></path>
                <path d="M410.75,193.45 C417.146347,193.083731 423.228589,190.555634 428,186.28 C430.168704,184.077789 432.028965,181.591834 433.53,178.89 C435.29,175.95 435.99,172.68 433.9,169.65 C432.429986,167.743099 430.532272,166.208485 428.36,165.17 C415.36,158.1 399.23,157.57 385.5,163.01 C381.44,164.62 377.43,166.84 374.94,170.43 C373.365728,172.670166 372.626214,175.391156 372.85,178.12 C372.967679,179.467882 373.391807,180.771051 374.09,181.93 C374.78,183.05 375.8,183.41 376.96,183.99 C382.735867,187.050996 388.773091,189.591047 395,191.58 C400.094439,193.147241 405.430211,193.780758 410.75,193.45 L410.75,193.45 Z" id="Path" fill="#454D5E" fill-rule="nonzero"></path>
                <g id="Group" opacity="0.43" transform="translate(372.000000, 159.000000)" fill="#E43A70" fill-rule="nonzero">
                    <path d="M38.75,34.45 C45.1463469,34.0837308 51.2285889,31.5556337 56,27.28 C57.8362717,25.4532184 59.4324431,23.4000379 60.75,21.17 C55.92,27.29 49.12,28.31 43.06,27.17 C30.81,24.83 22.73,12.58 26.67,0.72 C22.1463475,1.23610922 17.7090901,2.33870046 13.47,4 C9.41,5.61 5.4,7.83 2.91,11.42 C1.33572838,13.6601655 0.596213537,16.3811555 0.82,19.11 C0.93767861,20.4578824 1.3618071,21.7610514 2.06,22.92 C2.75,24.04 3.77,24.4 4.93,24.98 C10.7151461,28.0460658 16.7624868,30.5894963 23,32.58 C28.0944395,34.1472407 33.4302109,34.7807577 38.75,34.45 L38.75,34.45 Z" id="Path"></path>
                </g>
                <path d="M410.75,193.45 C417.146347,193.083731 423.228589,190.555634 428,186.28 C429.836272,184.453218 431.432443,182.400038 432.75,180.17 C427.92,186.29 421.12,187.31 415.06,186.17 C402.81,183.83 394.73,171.58 398.67,159.72 C394.146347,160.236109 389.70909,161.3387 385.47,163 C381.41,164.61 377.4,166.83 374.91,170.42 C373.335728,172.660166 372.596214,175.381156 372.82,178.11 C372.937679,179.457882 373.361807,180.761051 374.06,181.92 C374.75,183.04 375.77,183.4 376.93,183.98 C382.715146,187.046066 388.762487,189.589496 395,191.58 C400.094439,193.147241 405.430211,193.780758 410.75,193.45 L410.75,193.45 Z" id="Path" fill="#192234" fill-rule="nonzero"></path>
                <polygon id="Path" fill="#FFFFFF" fill-rule="nonzero" points="401.67 152.96 441.09 183 441.09 134.89"></polygon>
                <path d="M372.25,0.54 C371.53,0.54 370.77,1.43 370.05,1.42 C369.33,1.41 368.6,0.53 367.88,0.57 C367.16,0.61 366.41,0.57 365.69,0.63 C364.97,0.69 364.22,0.68 363.51,0.79 C362.8,0.9 362.21,1.79 361.51,1.93 C360.81,2.07 360.19,2.6 359.51,2.76 C358.83,2.92 357.96,2.47 357.26,2.67 C356.56,2.87 355.83,2.94 355.15,3.16 C354.47,3.38 353.64,3.28 352.97,3.53 C352.3,3.78 351.89,4.74 351.23,5.02 C350.57,5.3 349.9,5.62 349.23,5.94 C348.56,6.26 347.87,6.5 347.23,6.85 C346.59,7.2 346,7.66 345.38,8.06 C344.76,8.46 343.72,8.27 343.13,8.72 C342.54,9.17 342.13,9.91 341.61,10.4 C341.09,10.89 341.17,12.02 340.67,12.56 C340.17,13.1 339.14,13.18 338.67,13.78 C338.2,14.38 338.51,15.37 338.15,16.02 C337.79,16.67 336.67,16.92 336.4,17.62 C336.13,18.32 336.75,19.25 336.59,19.97 C336.386796,20.6475874 336.256064,21.344824 336.2,22.05 C336.2,22.79 335.54,23.6 335.73,24.31 C335.92,25.02 336.05,25.86 336.29,26.62 C336.53,27.38 337.37,27.9 337.67,28.62 C337.97,29.34 337.87,30.28 338.26,30.96 C338.687041,31.6355066 339.165101,32.2773769 339.69,32.88 C340.19,33.47 341.06,33.71 341.69,34.2 C342.284809,34.5118344 342.903415,34.7759962 343.54,34.99 C344.13,35.31 344.54,35.85 345.21,36.12 C345.88,36.39 346.31,37.03 346.94,37.27 C347.57,37.51 348.33,37.47 348.94,37.74 C349.598292,37.9436041 350.245796,38.1805773 350.88,38.45 C351.48,38.78 351.55,39.85 352.09,40.28 C352.63,40.71 353.78,40.72 354.3,41.28 C354.82,41.84 355.22,42.56 355.69,43.18 C356.16,43.8 356.14,44.72 356.61,45.3 C357.08,45.88 357.61,46.44 358.08,47.01 C358.55,47.58 359.51,47.72 360.03,48.25 C360.55,48.78 360.8,49.6 361.37,50.09 C361.90821,50.6213541 362.475766,51.1221387 363.07,51.59 C363.65,51.98 364.65,51.67 365.27,51.99 C365.89,52.31 366.19,53.34 366.85,53.6 C367.51,53.86 368.16,54.23 368.85,54.42 C369.54,54.61 370.36,54.21 371.05,54.33 C371.744559,54.3982242 372.4421,54.4315994 373.14,54.43 C373.84,54.5 374.53,54.11 375.23,54.12 C375.93,54.13 376.71,55.24 377.49,55.21 C378.27,55.18 378.98,55 379.74,54.93 C380.5,54.86 381.15,54.17 381.89,54.06 C382.63,53.95 383.46,54.31 384.19,54.14 C384.92,53.97 385.78,54.14 386.48,53.89 C387.18,53.64 387.55,52.4 388.22,52.11 C388.89,51.82 389.94,52.16 390.57,51.77 C391.2,51.38 391.39,50.36 391.93,49.87 C392.40462,49.3265912 392.842268,48.7519689 393.24,48.15 C393.69,47.59 395.04,47.66 395.46,47.03 C395.88,46.4 395.56,45.36 395.92,44.7 C396.28,44.04 397.27,43.7 397.59,43.06 C397.91,42.42 397.59,41.4 397.82,40.73 C398.05,40.06 398.68,39.45 398.91,38.73 C399.14,38.01 398.91,37.14 399.07,36.47 C399.23,35.8 400.07,35.1 400.19,34.47 C400.391235,33.7170757 400.544872,32.9522298 400.65,32.18 C400.604468,31.4021372 400.51432,30.6275296 400.38,29.86 C400.33,29.1 399.55,28.44 399.38,27.69 C399.21,26.94 399.61,26.1 399.38,25.36 C399.15,24.62 399.49,23.71 399.24,22.98 C398.99,22.25 398.45,21.62 398.15,20.92 C397.85,20.22 397.65,19.44 397.31,18.76 C396.97,18.08 396.51,17.44 396.14,16.76 C395.77,16.08 394.65,15.87 394.25,15.22 C393.85,14.57 393.61,14.05 393.25,13.48 C392.89,12.91 392.44,12.43 392.03,11.89 C391.62,11.35 391.36,10.73 390.92,10.22 C390.48,9.71 390.05,9.22 389.57,8.75 C389.09,8.28 388.89,7.34 388.33,6.88 C387.77,6.42 387.09,6.08 386.49,5.67 C385.89,5.26 385.12,5.14 384.49,4.78 C383.86,4.42 383.37,3.78 382.71,3.49 C382.05,3.2 381.12,3.57 380.44,3.32 C379.76,3.07 379.29,2.23 378.59,2.03 C377.89,1.83 377.17,1.72 376.46,1.57 C375.75,1.42 375.09,0.89 374.37,0.79 C373.65,0.69 373,0.59 372.25,0.54 Z" id="Path" fill="#2F3849" fill-rule="nonzero"></path>
                <path d="M336.3,26.62 C336.53,27.36 337.38,27.9 337.68,28.62 C337.98,29.34 337.88,30.28 338.27,30.96 C338.697041,31.6355066 339.175101,32.2773769 339.7,32.88 C340.2,33.47 341.07,33.71 341.7,34.2 C342.294809,34.5118344 342.913415,34.7759962 343.55,34.99 C344.14,35.31 344.55,35.85 345.22,36.12 C345.89,36.39 346.32,37.03 346.95,37.27 C347.58,37.51 348.34,37.47 348.95,37.74 C349.608292,37.9436041 350.255796,38.1805773 350.89,38.45 C351.49,38.78 351.56,39.85 352.1,40.28 C352.64,40.71 353.79,40.72 354.31,41.28 C354.83,41.84 355.23,42.56 355.7,43.18 C356.17,43.8 356.15,44.72 356.62,45.3 C357.09,45.88 357.62,46.44 358.09,47.01 C358.56,47.58 359.52,47.72 360.04,48.25 C360.56,48.78 360.81,49.6 361.38,50.09 C361.91821,50.6213541 362.485766,51.1221387 363.08,51.59 C363.66,51.98 364.66,51.67 365.28,51.99 C365.9,52.31 366.2,53.34 366.86,53.6 C367.52,53.86 368.17,54.23 368.86,54.42 C369.55,54.61 370.37,54.21 371.06,54.33 C371.754559,54.3982242 372.4521,54.4315994 373.15,54.43 C373.85,54.5 374.54,54.11 375.24,54.12 C375.94,54.13 376.72,55.24 377.5,55.21 C378.28,55.18 378.99,55 379.75,54.93 C380.133874,54.8615187 380.500717,54.7188578 380.83,54.51 C380.6,52.63 380.32,50.75 380.03,48.88 C379.813159,46.7226674 379.256271,44.6132433 378.38,42.63 C375.26,36.47 367.29,35.12 361.15,31.96 C353.59,28.08 346.63,19.4 347.98,11.28 C348.562827,7.60892449 351.094693,4.5446387 354.59,3.28 C354.032788,3.30558248 353.47978,3.38937158 352.94,3.53 C352.26,3.79 351.86,4.74 351.2,5.02 C350.54,5.3 349.87,5.62 349.2,5.94 C348.53,6.26 347.84,6.5 347.2,6.85 C346.56,7.2 345.97,7.66 345.35,8.06 C344.73,8.46 343.69,8.27 343.1,8.72 C342.51,9.17 342.1,9.91 341.58,10.4 C341.06,10.89 341.14,12.02 340.64,12.56 C340.14,13.1 339.11,13.18 338.64,13.78 C338.17,14.38 338.48,15.37 338.12,16.02 C337.76,16.67 336.64,16.92 336.37,17.62 C336.1,18.32 336.72,19.25 336.56,19.97 C336.356796,20.6475874 336.226064,21.344824 336.17,22.05 C336.17,22.79 335.51,23.6 335.7,24.31 C335.89,25.02 336.06,25.86 336.3,26.62 Z" id="Path" fill="#192234" fill-rule="nonzero"></path>
                <g id="Group" opacity="0.43" transform="translate(355.000000, 2.000000)" fill="#E43A70" fill-rule="nonzero">
                    <path d="M1.45,1 L1.36,0.92 C1.05,0.98 0.74,1.04 0.43,1.12 C0.766651982,1.05539456 1.10754613,1.01528937 1.45,1 L1.45,1 Z" id="Path"></path>
                </g>
                <path d="M366.66,68.28 C361.91,70.28 359.76,73.43 345.04,90.38 L334.04,103.09 C331.12,106.45 326.8,109.83 327.56,114.79 C327.822137,116.883095 328.900355,118.787947 330.56,120.09 C331.692579,119.760188 332.778122,119.286313 333.79,118.68 C336.010704,117.197944 337.990475,115.383435 339.66,113.3 C351.17,100.3 354.48,96.17 359.73,92.9 C362.5,91.18 365.57,89.98 368.33,88.23 C375.11,83.93 378.28,77.49 380.26,69.66 C376.225716,67.0019591 371.145983,66.4865156 366.66,68.28 L366.66,68.28 Z" id="Path" fill="#BAC1CF" fill-rule="nonzero"></path>
                <rect id="Rectangle" fill="#2F3849" fill-rule="nonzero" transform="translate(72.965000, 186.120000) rotate(-180.000000) translate(-72.965000, -186.120000) " x="29.36" y="178.52" width="87.21" height="15.2"></rect>
                <rect id="Rectangle" fill="#FFFFFF" fill-rule="nonzero" transform="translate(81.993218, 152.900145) rotate(151.490000) translate(-81.993218, -152.900145) " x="33.7632182" y="123.805145" width="96.46" height="58.19" rx="1.63"></rect>
                <path d="M52.72,200.05 L39.61,175.92 L53.87,154.28 C54.9389542,152.671948 56.8811174,151.879228 58.77,152.28 L107.34,162.67 L111.34,170.06 L54.93,200.7 C54.1401627,201.130126 53.1511961,200.839254 52.72,200.05 Z" id="Path" fill="#CDD2DD" fill-rule="nonzero"></path>
                <circle id="Oval" fill="#FF88B1" fill-rule="nonzero" cx="104.54" cy="123.56" r="5.75"></circle>
                <path d="M136.83,156.22 L54.93,200.7 C54.5943624,200.883166 54.2052729,200.943298 53.83,200.87 L70,171.32 C70.9099467,169.66955 72.74322,168.750925 74.61,169.01 L81.53,169.96 L93.12,142.26 C93.8278512,140.560565 95.6774262,139.640039 97.46,140.1 L135.12,149.73 L137.44,154.01 C137.876623,154.78936 137.604581,155.774954 136.83,156.22 Z" id="Path" fill="#8A92A3" fill-rule="nonzero"></path>
                <polygon id="Path" fill="#596377" fill-rule="nonzero" points="18.9 174.15 18.9 157.27 22.22 157.87 22.22 174.43 35.06 184.96 35.06 223.28 3.19 230.17 3.19 184.19"></polygon>
                <rect id="Rectangle" fill="#596377" fill-rule="nonzero" transform="translate(67.735000, 159.410000) rotate(-180.000000) translate(-67.735000, -159.410000) " x="18.9" y="157.27" width="97.67" height="4.28"></rect>
                <circle id="Oval" fill="#FF88B1" fill-rule="nonzero" cx="33.52" cy="157.27" r="33.18"></circle>
                <path d="M26.33,180.09 L56.13,165.09 C56.8826225,164.710608 57.1866725,163.793987 56.81,163.04 L48.27,146.1 C48.0519774,145.574193 47.5584468,145.214268 46.991167,145.167364 C46.4238873,145.12046 45.8779438,145.394439 45.5765223,145.877296 C45.2751008,146.360154 45.2687245,146.970955 45.56,147.46 L53.41,163 L26.32,176.65 L18.47,161.06 C18.2270594,160.574119 17.7433585,160.254753 17.2011027,160.222205 C16.6588469,160.189657 16.1404178,160.448872 15.8411027,160.902205 C15.5417875,161.355539 15.5070594,161.934119 15.75,162.42 L24.29,179.42 C24.668974,180.167579 25.5815783,180.467307 26.33,180.09 L26.33,180.09 Z" id="Path" fill="#FFFFFF" fill-rule="nonzero"></path>
                <path d="M37.78,165.73 C38.5085753,165.355496 38.8093089,164.470985 38.46,163.73 L26.9,140.73 C26.5216849,139.978893 25.6061073,139.676685 24.855,140.055 C24.1038928,140.433315 23.801685,141.348893 24.18,142.1 L35.74,165.1 C36.133228,165.83262 37.0421452,166.113315 37.78,165.73 L37.78,165.73 Z" id="Path" fill="#FFFFFF" fill-rule="nonzero"></path>
                <path d="M37.78,165.73 C38.142778,165.552633 38.4173286,165.234732 38.54,164.85 L42.54,152.74 C42.667893,152.352855 42.6337912,151.930444 42.4454499,151.568828 C42.2571086,151.207213 41.9305364,150.93713 41.54,150.82 C41.15148,150.69471 40.7290017,150.729877 40.3665437,150.917679 C40.0040858,151.105481 39.7317081,151.430343 39.61,151.82 L36.09,162.48 L25.42,158.96 C24.6219485,158.697665 23.7623353,159.131949 23.5,159.93 C23.2376647,160.728051 23.6719485,161.587665 24.47,161.85 L36.58,165.85 C36.9791733,165.97964 37.4144025,165.936118 37.78,165.73 Z" id="Path" fill="#FFFFFF" fill-rule="nonzero"></path>
                <rect id="Rectangle" fill="#596377" fill-rule="nonzero" transform="translate(52.025000, 207.180000) rotate(-180.000000) translate(-52.025000, -207.180000) " x="3.19" y="184.19" width="97.67" height="45.98"></rect>
                <polygon id="Path" fill="#FFFFFF" fill-rule="nonzero" points="116.57 174.15 116.57 157.27 119.89 157.87 119.89 174.43 132.74 184.96 132.74 223.28 100.86 230.17 100.86 184.19"></polygon>
            </g>
        </g>
    </g>
</svg>