<?xml version="1.0" encoding="utf-8"?>
<svg version="1.1" xmlns="http://www.w3.org/2000/svg" xmlns:xlink="http://www.w3.org/1999/xlink" height="112.20341857791448" width="349.9999999999999" viewBox="0 0 349.9999999999999 112.20341857791448">
  <defs>
    <path id="path-1" fill-rule="evenodd" d="M123.08670825245487,112.12426738028145 L124.34653148144682,112.20341857791445 L167.70159998492394,112.20341857791445 C213.4048206848468,109.44631852703152 258.34291314098397,99.61837815426703 304.60678815747394,98.84665397734527 C315.8249787080889,98.63490825847747 327.04599396821277,99.07537990755 338.21306748581975,100.16584060456199 C338.9056404651083,86.77609633831237 327.428716808323,75.67514087028376 314.5930309255044,72.19248817443165 C290.1353108569067,65.5569794395316 265.69737858771714,80.95848331228667 242.27522002148447,85.1600927199719 C212.8309745020076,90.43683922883874 234.2479693948708,50.03674877032701 235.27693496409984,24.00919661534134 C235.54077228954318,17.49901061002688 234.14903039782956,9.986242768027719 228.42376043570908,6.701468066258112 C223.91873810376399,4.1224582100494445 218.23304374046,5.065676648509392 213.2531142227169,6.51018600531169 C169.21206867308706,19.246932891089006 141.84554209147646,61.197067636580364 106.24729095603358,86.83545973653712 C102.5469724666907,89.47383299097054 97.41533648681774,92.04624691404312 93.67544239865835,89.42106552588186 C84.49390347323008,82.98343478506433 98.65537191640144,56.17756252002078 92.47498256789115,47.649020975064765 C88.99892580517513,42.85377758513202 81.37402709986256,45.043627386311755 76.12366432354005,47.87987863482768 C46.615699178245464,63.827741684206345 20.704071708390003,85.67559255580882 -1.1368683772161603e-13,112.06490398205673 C52.84002035316516,99.74370088385261 95.23867855191017,110.00697284359862 123.08670825245487,112.12426738028145Z"/>
    <path id="path-2" fill-rule="evenodd" d="M122.97457738914157,27.80185816859218 C122.6052051335209,23.329815502327527 118.0737990690315,20.124191998190923 113.81282626312154,20.684846314758026 C111.67574392703045,20.961875506473536 109.74973145129407,22.063396340199493 107.68520437969993,22.663626255583093 C105.62067730810577,23.263856170966694 103.10103085012186,23.25066430469453 101.6433296270474,21.667640352034475 C99.96796261048218,19.8537587396115 100.39010233119151,16.773457965060476 98.74111904717063,14.939788553229251 C97.09213576314974,13.106119141398024 94.2558845146338,13.30399713548053 91.87475265250765,13.785500254414629 C82.50852759926903,15.665341198198442 79.5403576880314,18.336694118312284 76.44026911407215,18.73904603961338 C74.9917914517664,18.99445632947053 73.51064030551703,18.518019377426985 72.48270923242202,17.466030944349253 C71.46033959632908,16.258975180445965 71.51970299455382,15.368524207074683 70.25328383242578,5.593351299398855 C70.06200177147936,4.129054143188306 69.81795224544427,2.5526261236643357 68.77579480994308,1.5104686881631342 C67.24553832237169,0 64.60716506793827,0.310008857395927 62.56902172888845,1.028965569229035 C52.31894163541461,4.584173529578071 45.940674292821825,14.62318376269724 37.22085068691938,21.074006369786957 C36.56125737331102,21.56870135499323 35.76314946384491,22.063396340199493 34.9650415543788,21.84573054670874 C33.322654203494,21.403803026591138 33.606279328345586,18.692874507660793 32.17496183781546,17.7694438686091 C30.987693873320424,17.004315624823406 29.45743738574904,17.90795846446685 28.40208808397567,18.844580969790716 C25.500215995636577,21.404094041412794 23.047749141486616,24.431775848627012 21.146561634283785,27.80185816859216 L122.97457738914157,27.80185816859218Z"/>
    <path id="path-3" fill-rule="evenodd" d="M349.99999999999966,43.829975689273894 C349.6240318112429,39.35133708987317 345.09262574675347,36.14571358573656 340.8316529408436,36.70636790230366 C338.7011665378886,36.98999302715525 336.7685581290161,38.084917927745124 334.70403105742196,38.68514784312873 C332.6395039858278,39.28537775851233 330.12645346098,39.27218589224017 328.6621563047694,37.68916193958012 C326.98678928820414,35.875280327157135 327.4155249420496,32.8015754857422 325.7665416580287,30.96131014077489 C324.11755837400784,29.12104479580758 321.28130712549194,29.332114656162254 318.89357933022967,29.80702184196027 C309.5339502101271,31.686862785744083 306.56578029888954,34.358215705857916 303.46569172493025,34.76056762715902 C302.01840874890866,35.016476018181834 300.5379756649623,34.54273743131899 299.5081318432801,33.494148465030975 C298.4857622071872,32.28049676799159 298.54512560541195,31.39004579462032 297.2787064432839,21.621468820080576 C297.0874243823374,20.157171663870027 296.8433748563024,18.580743644346057 295.7946214876651,17.538586208844855 C294.25117313382157,15.995137855001303 291.67216327761287,16.311742645533315 289.6076362060187,17.024103424230336 C279.35755611254484,20.57931138457937 272.9792887699521,30.618321617698538 264.25946516404963,37.07574015792434 C263.5998718504413,37.563839209994526 262.7951680078391,38.05853419520079 262.0036560315091,37.84086840171003 C260.35467274748817,37.39894088159244 260.6448938054758,34.68801236266209 259.2069803818096,33.76458172361039 C258.0263083504507,33.00604941296079 256.4894559297432,33.90969225260423 255.4341066279698,34.839718824792016 C252.53354203789806,37.40302049477622 250.08131857608578,40.432631117142535 248.1785801782779,43.80359195672956 L349.99999999999966,43.829975689273894Z"/>
    <path id="path-4" fill-rule="evenodd" d="M253.68618434690404,60.418747526524136 C255.34325435759828,61.42625394634071 257.1147123567641,62.232267335961225 258.96293085577054,62.81966718805856 C259.09792561487876,62.86982700250934 259.2410750378975,62.89443080959068 259.38507057647985,62.89222245255549 C259.6537741330496,62.831575692084265 259.8894843043027,62.67129277563213 260.0446638900882,62.443698999301795 C260.68113512260675,61.68975179521389 261.16300025931173,60.81791208275686 261.46278951434607,59.877881009365275 C261.5425603558783,59.72495913652353 261.5425603558783,59.54270383013685 261.46278951434607,59.38978195729509 C261.3853730907073,59.30156678226161 261.28106258803797,59.24129849183043 261.16597252322236,59.21828769575693 C259.00555850154956,58.481233449480804 256.6654452231373,58.458109800484635 254.49088818950617,59.152328364396084 "/>
    <path id="path-5" fill-rule="evenodd" d="M252.76934964099104,56.40182424665026 C254.82068484631296,55.74223093304191 259.807210297192,54.70666943067681 260.96809452914266,54.996890488664484 C261.89812110133045,55.2277481484274 263.1843280628667,56.936094830673014 263.40858978949353,57.701223074458696 C263.82413357706673,59.11934869871664 262.5906940806192,61.59941955788402 261.81237397056134,61.962195880368604 C261.290654309827,62.14010247592512 260.72468594609137,62.14010247592512 260.20296628535704,61.962195880368604 C254.10832406761594,60.56385805551891 251.83272713566717,60.86067504664267 251.54250607767952,60.51109059043024 C251.25228501969184,60.16150613421782 251.87889866761975,57.70781900759477 252.07677666170227,57.114185025347254 "/>
    <path id="path-6" fill-rule="evenodd" d="M205.64140738366777,50.39292915967735 L253.1189340971972,56.263309650791726 L252.393381452228,60.702372651375974 L205.46331718899353,62.661364792792796 L205.64140738366777,50.39292915967735Z"/>
    <path id="path-7" fill-rule="evenodd" d="M253.1189340972053,56.25671371765562 L205.62821551740436,50.39292915967735 L205.522680587227,58.55869438214877 C211.05980468757974,56.641471429293645 216.98496808751648,56.12259478738713 222.7710457380852,57.048225693985636 C226.01624484103831,57.51653694664756 229.2482520777192,58.367412321202345 232.52643084635272,58.16953432711984 C235.30991462977994,58.01782786498992 237.9944594161659,57.140568757890804 240.75155946704882,56.7448127697258 C244.82125021201233,56.15117878747827 248.93051655579228,56.593106307595875 253.0463788327084,56.89651923185572 L253.1189340972053,56.25671371765562Z"/>
    <path id="path-8" fill-rule="evenodd" d="M69.41560032413952,32.95987788100971 C77.47897432231638,31.761216265821936 85.71322388203096,32.55610669361616 93.39841320693921,35.27505041177501 C96.12912952527785,36.24465258277932 98.98516857320203,37.64958634076511 100.23179993592181,40.26817179579028 C101.10905904302092,42.11503307389368 101.03650377852401,44.298286941937334 101.93355068503138,46.138552286904655 C103.14720238207074,48.631815012344234 105.8911105666815,49.99717317151352 108.56905941993142,50.75570548216314 C114.96051862879636,52.510223696361365 121.7609256920985,51.692327987487005 128.29749542995728,52.85980815257379 C135.33638280301093,54.13821594856562 141.77063221319884,57.66548073314347 146.63418954826955,62.91201025196512 C147.1607231071564,63.581213848191496 147.81269412451135,64.14132640605658 148.55360609086983,64.56099353598601 C149.46064592253404,64.89904779926289 150.43611010352856,65.0122106972901 151.39645327252185,64.89079019279018 C151.39645327252185,64.89079019279018 168.05778037426887,64.05970261764367 184.65314814465506,61.85666095019175 C187.76119457859812,61.54493517606407 190.82375991764386,60.88108430777382 193.7819196049946,59.8778810093667 L202.2247140191816,47.49071857980178 L195.48367035410422,37.45170834668261 L181.84987656181954,32.26070896858486 L136.0609087311276,38.80387463957974 L99.78327648266813,24.75453705972177 L78.33330192412444,25.92201722480856 L69.41560032413952,32.95987788100971Z"/>
    <path id="path-9" fill-rule="evenodd" d="M122.9877692554122,90.97110981286166 L111.11508961046172,106.09558449390121 L112.11767144714644,106.66943067674049 C113.59120878181054,107.50658267797066 115.45436900151962,107.15182803343835 116.5171588489142,105.8317471684579 C116.96171089647044,105.27640177848004 117.56793674883887,104.87301955732232 118.25188926370417,104.67745886964326 L130.93586868439291,99.20943029983 L130.5005370974114,93.36543354125997 L126.60893654712208,90.46322296138322 C125.46678197044162,89.61107642520301 123.85143084404014,89.83763751214819 122.9877692554122,90.97110981286166Z"/>
    <path id="path-10" fill-rule="evenodd" d="M69.7519929140892,57.37142641765484 L53.130241411158636,68.77579480994329 L53.92834932062474,69.52773118745682 C55.1016640085191,70.61629621244201 56.88719088794597,70.70529443696172 58.16293839399039,69.73880104781148 C58.69926490679257,69.33549271667763 59.34585974278371,69.10538779283738 60.01639560522987,69.07920773420312 L74.35595424307552,66.6848840058048 L75.01554755668387,60.90684657859562 L72.88506115372888,57.89910106854152 C72.54137210250146,57.41130913490417 72.01696983751609,57.08112467842622 71.42854672316932,56.982021838115195 C70.84012360882255,56.882918997804154 70.23649854586063,57.02311990431205 69.7519929140892,57.37142641765484Z"/>
    <path id="path-11" fill-rule="evenodd" d="M162.1544202174755,72.64760756082434 L126.49680568380785,72.41015396792534 C120.88261233743786,72.369821398892 115.27461792947976,72.0285418020198 109.69696398620316,71.38778433183239 L74.35595424306746,66.67169213953264 L74.87043702768197,60.73535231705745 L114.34050091400587,61.1970676365833 L151.01388915063035,55.80819026440304 L162.1544202174755,72.64760756082434Z"/>
    <path id="path-12" fill-rule="evenodd" d="M151.73944179560044,65.70208996852831 L153.75779733524203,59.9834159395439 L151.01388915063126,55.80819026440304 L114.34050091400667,61.19706763658327 L74.87043702768261,60.74854418332959 L74.83086142886611,61.16408797090285 C75.53662627442705,61.16408797090285 76.24898705312408,61.21025950285543 76.95475189868502,61.26962290108018 C82.83172832293548,61.75772195315036 88.58338201760034,63.90799615551359 94.4669543749869,63.5056442342125 C98.62239225071954,63.2220191093609 102.79102199272435,61.67197482238128 106.85411680455182,62.575617662024726 C111.43829033412989,63.597987298117665 115.05286169270369,67.59512277858428 119.72278235305086,68.08322183065445 C124.79505493469911,68.61749241467723 129.22092606901117,64.91717392533437 134.02276539208003,63.189039443680485 C139.98551097324565,61.094842496331864 146.5943014871437,62.03227704055939 151.73944179560044,65.70208996852831Z"/>
    <path id="path-13" fill-rule="evenodd" d="M196.52582778960996,43.00548404726439 L203.45155758249766,47.23347718749391 C204.8701636907411,48.10114383022633 206.0563667257398,49.300929342725 206.90782654580542,50.72932174961816 L207.73891412095193,52.2002148389648 C208.7161526742329,53.84698685209231 209.21415590917348,55.73391654044529 209.17682754461813,57.648455609369776 C209.1392124897029,59.60465714781884 208.54178326427711,61.509105866417684 207.45528899610036,63.136271978591225 L205.0279856020216,66.77063113657326 C202.9376354052643,69.89687897723783 199.50764977555232,71.86802292375793 195.7541036126882,72.10014511052873 L195.01535910144682,72.14631664248131 C194.42262221484881,72.1924705789483 193.82719404130233,72.1924705789483 193.23445715470433,72.14631664248131 L169.6342083937975,70.12796110283975 L162.45783314173866,53.57876486440624 L179.21150330739076,50.392929159677905 L187.21237020146006,41.158622769161 L188.43921376477158,41.07287563839192 C191.27075512904474,40.85269508570809 194.09981571382485,41.52880825972161 196.52582778960996,43.00548404726439Z"/>
    <path id="path-14" fill-rule="evenodd" d="M169.6539961932,70.10817330343161 L193.22786122156265,72.12652884307317 C193.8205981081607,72.17268277954017 194.41602628170716,72.17268277954017 195.0087631683052,72.12652884307317 L195.74750767954654,72.0803573111206 C199.50105384241073,71.8482351243498 202.93103947212273,69.87709117782968 205.02138966888003,66.75084333716511 L207.4486930629588,63.116484179183075 C209.63387246493386,59.83543419759007 209.74666920569715,55.592738607516125 207.73891412094642,52.20021483896484 L207.45528899609485,51.731903586302906 L168.82290861805348,69.112187399883 L169.6539961932,70.10817330343161Z"/>
    <path id="path-15" fill-rule="evenodd" d="M179.62704709496168,60.88705877918502 C179.9005383091261,60.8625531016347 180.15370997749315,60.73241813191332 180.3328119405226,60.52428245670042 C182.84586246537046,58.215705859071186 185.1478431298636,55.55094887209343 188.24793170382284,54.053672050202465 C190.6158716996768,52.905979684523935 193.26743682038241,52.53660742890325 195.81346701091064,51.85722631588665 C198.3594972014389,51.177845202870046 200.95169892391974,50.05653656973584 202.45557167894677,47.89966643423653 C202.66007115864804,47.59977671309636 202.84090666181498,47.28441723806132 202.9964381961056,46.956447995776585 L196.52582778960766,42.99888811412645 C194.11260094718548,41.51148874629955 191.2932669696459,40.81934456196086 188.46559749731358,41.02010817330139 L187.23875393400203,41.105855304070474 L179.23788703993273,50.34016169458743 L162.4842168742806,53.52599739931578 L165.12259012871402,59.56127621883222 C166.44970134261578,58.129868457572314 168.07249021852715,57.0044947572177 169.87825791983025,56.26330965079046 C170.20145864349834,56.13139098806878 170.62359836420768,56.03904792416361 170.84126415769842,56.30288524960695 C170.9527982604172,56.47193335116207 170.9952888028907,56.677304306450786 170.95999095414797,56.87673143244622 C170.85445602397056,58.55869438214752 170.1684789778179,60.300020730073584 170.78190075947367,61.863256883325384 C170.84342278218918,62.06984757849965 170.97676804722352,62.24764126521207 171.15786894823043,62.36454780166774 C171.54043307012327,62.56902172888633 171.98895652337694,62.23922507208215 172.29236944763682,61.92262028155014 C174.60094604526606,59.49531688747139 176.24992932928694,56.26990558392654 179.3038463712936,54.83858809339642 C181.22985884703,54.930931157301586 178.9344741156729,58.03761566439693 178.9740497144894,59.64702334960133 C178.94766598194508,60.20108173303234 179.11916024348326,60.860675046640694 179.62704709496168,60.88705877918502Z"/>
    <path id="path-16" fill-rule="evenodd" d="M225.0466426700257,51.692327987487225 C224.94946419671228,51.79340829652275 224.8811368451219,51.91867510777188 224.84876467594322,52.05510430997182 C224.81386783678082,52.190417950794625 224.83782797864032,52.33417880195172 224.91472400730407,52.45086029813683 C224.9938698628542,52.553110698007 225.10557379813702,52.62525282287715 225.23132879783603,52.65533422535542 C225.3546449394169,52.68409640514626 225.4806857456795,52.699575100652204 225.60729698659273,52.701505757308 C225.46234665645483,52.78116577543036 225.31254506084701,52.8516606439517 225.1587735333391,52.91257561766267 C225.112802576948,52.91866195677388 225.06622989387253,52.91866195677388 225.02025893748143,52.91257561766267 C224.9432393152456,52.91608620540173 224.86777184141556,52.89014426127266 224.8091890771268,52.840020353165755 C224.60763210946166,52.685480327751414 224.51271260062538,52.42894111468039 224.5651395510917,52.180427039557394 C224.64099251340812,51.924574851793466 224.84263545103505,51.72542133314958 225.09941013511443,51.652752388670706 "/>
    <path id="path-17" fill-rule="evenodd" d="M211.57115127301796,52.57618302772102 C211.5066504653233,52.09538487362542 211.27277370163088,51.65335779024676 210.9115579594096,51.32955166500123 C209.94830074120213,50.240072261907045 209.16054600512666,49.007258352907535 208.576597629236,47.67540470761092 C208.00275144639676,46.35621808039419 207.52784426059875,44.81936565968672 206.25482916533463,44.133388613534024 C205.28522699433034,43.605713962647336 204.05838343101883,43.72444075909684 203.0887812600145,43.18357424193799 C202.4493945068848,42.796706715593885 201.9520124461469,42.21372867231037 201.6706556357566,41.52139909164494 C201.44323777646844,40.76957377186675 201.0885068693632,40.06234296965064 200.62190226711928,39.43048828750644 C200.23832700031176,39.064739697996494 199.7687390831725,38.80158898114552 199.25654410795008,38.66536004372074 C198.7028095033408,38.484497906121035 198.12916271453525,38.37154043033306 197.54819742570442,38.32896745378048 C200.11533221888715,41.154865752099454 201.9836712457419,44.54363061338375 203.0030341292455,48.22286715790587 C205.30501479373865,49.64758871529991 209.19001941089184,55.0364660874802 210.84559862804878,53.76345099221607 C211.25920827927345,53.50234199204107 211.5274739587018,53.06336178934012 211.57115127301796,52.57618302772102Z"/>
    <path id="path-18" fill-rule="evenodd" d="M224.82238094340187,56.93609483067317 C225.10600606825346,56.57331850818858 225.58091325405147,56.276501517064816 225.54793358837105,55.801594331266806 C225.50901161965598,55.66223533163721 225.4956041507288,55.516987751593206 225.5083579895546,55.37285867742138 C225.56112545464322,55.2013644158832 225.7392156493175,55.11561728511412 225.85794244576698,54.990294555528536 C226.04302666502042,54.75038487029271 226.09963424873501,54.43535136092463 226.0096489078969,54.146015114109844 C225.94368957653606,53.85579405612217 225.8117709138144,53.58536079754275 225.75900344872574,53.288543806418986 C225.729754643391,53.16290137719883 225.74130677566004,53.03120706933143 225.7919831144062,52.91257561766223 C225.95028550967217,52.60256676026631 226.40540489606192,52.64214235908281 226.68243408777744,52.437668431864225 C227.0979778753507,52.1276595744683 226.91329174754037,51.48125812713211 226.68243408777744,51.01294687447019 L226.07560823925775,49.69376024725348 C225.8641338033605,49.35095234855403 225.78007052760174,48.94464651572011 225.83815464635873,48.546067881574956 C225.9436895765361,48.12392816086561 226.34604149783715,47.846898969150104 226.49774795996709,47.4511429809851 C226.62834302116806,47.13873926102227 226.67824468438582,46.79850064817385 226.64285848896094,46.461753010572565 C226.56108654379977,44.062419992575165 225.7538644931202,41.74424384703381 224.32768595819564,39.81305240940041 C221.57058590731276,36.02698678928846 216.11574920377177,36.31720784727614 216.11574920377177,36.31720784727614 C212.57802291271372,36.41544441113218 209.49337440941278,38.75013112196394 208.43808303337065,42.12822494016571 C208.30519423277246,42.5592151702216 208.20812401141444,43.00044344912186 208.14786197538297,43.4474115673824 C207.8493006346607,45.759815481699896 206.07884168522162,47.60783230052529 203.7813542392957,48.005201364416095 L201.64427190320464,48.341593954356355 L205.41054972390828,58.39379605374762 C205.41054972390828,58.39379605374762 216.6698075872027,55.2409400146997 221.02312345701782,58.03761566439911 L221.68271677062614,58.50592691706103 C222.0298059043971,58.79562366598267 222.4494805017932,58.98493340285156 222.89636846766547,59.053389367355955 C223.27192227814814,59.07560220834246 223.63909336969795,58.93641316710135 223.90554623748625,58.67082524546311 C224.38045342328428,58.18932212652902 224.42002902210072,57.45057761528767 224.82238094340187,56.93609483067317Z"/>
    <path id="path-19" fill-rule="evenodd" d="M201.65746376948198,48.328402088083266 L204.29583702391534,55.38605054369266 C205.21854890289384,54.93914818055025 206.10123997265816,54.41394699404046 206.93421027834873,53.816218457304785 C208.36552776887885,52.78725288807575 209.7572696605924,51.27018826677653 209.5725835327821,49.51567005257831 C209.48024046887693,48.68458247743178 209.04490888189542,47.80072743719659 209.42747300378824,47.055386992819145 C209.63496613805162,46.71726562061324 209.92563593292564,46.43795011460148 210.27175244520691,46.24408721708086 C211.68328213632876,45.32725251116525 213.4312044173909,44.44339747093005 213.70823360910637,42.78781825377309 C213.82696040555587,42.082053408212154 213.6422742777455,41.356500763242956 213.75440514105895,40.65073591768202 C213.99185873395797,39.13367129638281 215.5221152215293,38.157473192242435 216.999604244012,37.72214160526092 C218.44335498951568,37.306700531241304 219.9597545694462,37.20770708685414 221.44526317773224,37.43192054727324 C219.79063133612107,36.67610483874791 217.98726145700022,36.30190558883032 216.1685166688655,36.336995646683384 C212.63079037780744,36.435232210539425 209.54614187450653,38.7699189213712 208.4908504984644,42.14801273957299 C208.35796169786627,42.57900296962888 208.26089147650822,43.02023124852914 208.20062944047675,43.46719936678969 C207.8878552710679,45.78812655821934 206.09317599636918,47.6310210970145 203.78135423930087,48.00520136441517 L201.65746376948198,48.328402088083266Z"/>
    <path id="path-20" fill-rule="evenodd" d="M203.78135423930007,54.04048018393033 C203.82092983811657,45.901098694003224 199.16420104404156,38.210240657329805 192.29783464937856,33.87671258692292 C185.43146825471558,29.54318451651603 176.8831389103513,28.276765354387983 168.80312081864895,29.259559391664432 C158.70474718730503,30.473211088703806 149.0878766748952,34.965041554376704 138.91694777905434,35.09696021709837 C127.75662891280095,35.24866667922829 117.15036842997861,30.12362663249138 107.9622335714142,23.79812675498726 C105.28428471816429,21.957861410019948 102.63931553059479,19.979081469194885 99.60518628799635,18.82479317038026 C93.98545125605315,16.68771083428919 87.50164898328302,17.624333339613056 82.19851874187185,20.453988654992898 C76.89538850046065,23.28364397037274 72.70037502591151,27.84143376740647 69.38921659159757,32.834555151421725 C75.14158207653456,29.88385364246335 81.64082827919583,28.708433629830864 88.06230329985014,29.457437385746935 C98.01556640220022,30.638109417105902 106.80794527259958,36.2908241147295 116.29289712228774,39.522831351410446 C125.80859814407614,42.74486364185882 135.98298078338524,43.51616578173956 145.87565723762253,41.765448617678864 C153.19714301867523,40.44626199046214 160.1954280760599,37.80788873602873 167.43116672634355,36.07315832123875 C174.6669053766272,34.33842790644877 182.42372274466146,33.62606712775175 189.40881593577393,36.17209731828 C195.77389141209457,38.487269849045326 201.00446638900883,44.08721708158026 201.88832142924406,50.64357461884731 C202.05381171519812,51.971562246570436 202.73347615422296,53.18169649166346 203.78135423930007,54.04048018393033Z"/>
    <path id="path-21" fill-rule="evenodd" d="M174.0007161298864,89.03850140399251 L169.08674594350416,67.6544861768097 L162.43144940919584,53.57876486440743 C159.04295221822653,50.824546940236814 154.17348942408987,50.873694852154145 150.84127399742874,53.695745513880695 C147.50905857076765,56.51779617560724 146.65877224064508,61.312699363110966 148.81744341631932,65.10845598628144 C149.72768218909886,66.68488400580542 162.1148446186638,85.55584870814042 162.1148446186638,85.55584870814042 L130.01903397848116,93.22032301226949 L130.97544428321328,99.22921809924159 L168.60524282457004,96.47871398149476 C170.36213754360756,96.32590594003358 171.96618221562863,95.41797288935298 173.00148159901656,93.99032288389868 C174.03678098240454,92.56267287844437 174.4013691923666,90.75591413098695 174.0007161298864,89.03850140399251Z"/>
    <path id="path-22" fill-rule="evenodd" d="M174.13923072573834,90.14002223771827 C174.12519610351694,89.7695178701309 174.07884868630578,89.40094555230866 174.00071612988063,89.03850140399236 L169.38356293462186,68.84835007444053 L165.95367770385826,70.25987976556242 L174.13923072573834,90.14002223771827Z"/>
    <path id="path-23" fill-rule="evenodd" d="M153.210334884945,63.26819064131284 C154.86476527769463,61.338677191958055 157.36565169244676,60.351160345066766 159.89201515179755,60.629817386879424 C162.3989155937309,60.934519116451334 164.71344791586696,62.128059545459834 166.4153930233841,63.99374328628203 C167.58562651905754,65.25532566011188 168.53548154057793,66.70463496524866 169.22526053935565,68.28109982473633 L169.0867459434979,67.67427397621665 L162.4314494091897,53.598552663814345 C159.04295221822045,50.84433473964373 154.1734894240839,50.89348265156106 150.84127399742283,53.715533313287615 C147.5090585707618,56.53758397501417 146.65877224063922,61.33248716251792 148.81744341631344,65.12824378568841 C149.06808887548462,65.56357537266992 150.1893975086188,67.31149765373206 151.68007839737368,69.60688238508914 C151.34699245404155,67.37540599976097 151.89584707175575,65.10191769103956 153.210334884945,63.26819064131284Z"/>
    <path id="path-24" fill-rule="evenodd" d="M153.210334884945,63.26819064131284 C154.86476527769463,61.338677191958055 157.36565169244676,60.351160345066766 159.89201515179755,60.629817386879424 C162.3989155937309,60.934519116451334 164.71344791586696,62.128059545459834 166.4153930233841,63.99374328628203 C167.58562651905754,65.25532566011188 168.53548154057793,66.70463496524866 169.22526053935565,68.28109982473633 L169.0867459434979,67.67427397621665 L162.4314494091897,53.598552663814345 C159.04295221822045,50.84433473964373 154.1734894240839,50.89348265156106 150.84127399742283,53.715533313287615 C147.5090585707618,56.53758397501417 146.65877224063922,61.33248716251792 148.81744341631344,65.12824378568841 C149.06808887548462,65.56357537266992 150.1893975086188,67.31149765373206 151.68007839737368,69.60688238508914 C151.34699245404155,67.37540599976097 151.89584707175575,65.10191769103956 153.210334884945,63.26819064131284Z"/>
    <path id="path-25" fill-rule="evenodd" d="M156.013606467781,91.22175527203558 C158.36175866422673,90.25874903416737 160.99353598552406,88.87360307558981 163.26913291747286,90.0081035749962 C164.15298795770806,90.45662702824988 165.14897386125665,91.26133087085208 165.9800614364032,90.7270602868293 C166.25391039498348,90.53137285675888 166.4556031024652,90.25085771187051 166.55390761924247,89.9289523773632 C167.47733825829417,87.29057912292976 164.50916834705657,84.97540659216443 163.88255469912863,82.26447807323409 C163.5329702429162,80.78039311761529 163.91553436480905,79.22375289749957 163.80340350149564,77.70668827620035 C163.5329702429162,74.02615758626573 160.50543693345386,71.22288600343022 157.6559938186658,68.88792567325663 C154.8065507038777,66.55296534308305 151.6800783973741,63.94097582119396 151.06006068258225,60.313212596348 C150.4004673689739,56.157774720615365 154.01503872754768,51.94956937979405 158.13749693759988,51.6923279874868 C154.68752750534182,51.12484114017843 151.21834304055164,52.58951684471735 149.21890818254136,55.457720229060314 C147.21947332453107,58.325923613403276 147.04535016063454,62.087598359311365 148.77127188436128,65.12824378568901 C149.6815106571408,66.70467180521298 162.06867308670564,85.57563650754804 162.06867308670564,85.57563650754804 L129.9728624465232,93.24011081167714 L130.42798183291296,96.10274579273741 C135.7377080074602,95.3112338164074 141.04083824887138,94.45376250871652 146.33737255714644,93.59629120102565 C149.62874319205213,93.02244501818637 152.93990162636607,92.48157850102753 156.013606467781,91.22175527203558Z"/>
    <path id="path-26" fill-rule="evenodd" d="M148.78446375063106,65.11505191941662 C149.03510920980224,65.55038350639813 150.1564178429365,67.29830578746027 151.6470987316914,69.59369051881734 C151.39830723103546,67.6766777111965 151.76314174571857,65.73012393981762 152.68925616719264,64.03331888509894 C151.8703587787438,62.92989150698795 151.31732407979882,61.65226848820081 151.07325254885214,60.300020730075644 C150.41365923524376,56.144582854343014 154.02823059381763,51.936377513521705 158.15068880386994,51.679136121214455 C154.7007193716118,51.111649273906096 151.23153490682154,52.57632497844501 149.2321000488112,55.44452836278797 C147.23266519080082,58.31273174713092 147.05854202690432,62.07440649303901 148.78446375063106,65.11505191941662Z"/>
    <path id="path-27" fill-rule="evenodd" d="M213.2992857546661,48.89565233778655 C213.59285528351285,48.68535194625401 213.76717382443283,48.346535627282805 213.76759700732796,47.98541356500703 C213.767597007328,44.72042666264568 216.372990596081,45.78237189755513 216.372990596081,45.78237189755513 L216.22128413395106,47.945837966190524 L217.15131070613884,48.071160695776115 L217.2568456363162,47.470930780392514 C217.33053526323687,47.05027755105102 217.62563924990022,46.70220618216608 218.028569813238,46.560692007612985 L220.81205359666527,45.577897970336544 C221.2967429795584,45.39836167122191 221.6319301497284,44.952304898611075 221.6695249043561,44.436801537794096 L221.6695249043561,44.29828694193634 C221.6979044653899,43.94541143317062 221.86692350427558,43.618750323465996 222.13857998366905,43.391749703698835 C222.41023646306255,43.164749083931675 222.76173109925674,43.0564604103504 223.11403426115837,43.09123117803306 L226.3262536984311,43.50017903247024 C225.91994406894116,42.1696404969027 225.29344153795168,40.916635434923776 224.4727964871916,39.79326460999131 C221.68271677062828,35.961027457926775 216.16851666886248,36.25784444905054 216.16851666886248,36.25784444905054 C212.59029491365152,36.35355841307776 209.46825952659202,38.712311803980114 208.3985074345561,42.12822494016486 C208.26174281367165,42.55858005493946 208.1624341813944,42.99995175394946 208.10169044343235,43.44741156738158 C207.8934687879811,44.984414122783086 207.04229847263824,46.36067260449239 205.7601341801227,47.23347718749351 C206.08333490379079,47.61604130938636 206.53185835704448,48.130524094000876 207.0793208073394,48.67139061115973 C208.60497702531504,50.289285675783944 211.09330472621045,50.52626926634541 212.89693383336507,49.22544899459075 L213.2992857546661,48.89565233778655Z"/>
    <path id="path-28" fill-rule="evenodd" d="M207.01995740911465,48.66479467802272 C207.6990259259968,49.374477064578386 208.59458760942994,49.83849866221216 209.56598759964285,49.98398130523944 C209.58247467775104,49.81949508493326 209.58247467775104,49.65377254033935 209.56598759964285,49.489286320033166 C209.4736445357377,48.65819874488664 209.03831294875616,47.77434370465144 209.420877070649,47.029003260273996 C209.6283702049124,46.69088188806809 209.91903999978638,46.41156638205633 210.26515651206765,46.21770348453572 C211.6766862031895,45.30086877862009 213.42460848425162,44.41701373838489 213.7016376759671,42.76143452122791 C213.8203644724166,42.05566967566698 213.63567834460625,41.33011703069777 213.7478092079197,40.624352185136836 C213.9852628008187,39.10728756383761 215.51551928839004,38.131089459697236 216.99300831087274,37.695757872715724 C218.5450325549851,37.24829965871325 220.17970648227487,37.16701752973199 221.76846390139713,37.45830427981671 C220.03171221045014,36.60611354429553 218.11582157510477,36.18312470272576 216.18170853513445,36.22486478336908 C212.58969922866638,36.31967582644687 209.45825845809296,38.69479403802592 208.39850743455602,42.1282249401639 C208.26174281367162,42.55858005493849 208.16243418139436,42.999951753948494 208.10169044343232,43.44741156738061 C207.89346878798105,44.98441412278214 207.0422984726382,46.36067260449147 205.7601341801227,47.233477187492596 C206.0569511712464,47.61604130938543 206.50547462450007,48.13052409399995 207.01995740911465,48.66479467802272Z"/>
    <path id="path-29" fill-rule="evenodd" d="M172.02853212219534,60.60343365433528 L218.2924071386857,60.60343365433528 L218.2924071386857,87.17185232647974 C218.2924071386857,87.6056911844047 218.1200653234148,88.02176113219565 217.81329492503386,88.32853153057663 C217.50652452665287,88.63530192895759 217.0904545788619,88.80764374422844 216.65661572093694,88.80764374422844 L173.66432353994406,88.80764374422844 C173.2304846820191,88.80764374422847 172.81441473422817,88.63530192895759 172.50764433584717,88.32853153057663 C172.2008739374662,88.02176113219565 172.02853212219532,87.6056911844047 172.02853212219532,87.17185232647974 L172.02853212219534,60.60343365433528Z"/>
    <path id="path-30" fill-rule="evenodd" d="M198.50460773043037,82.91747545370444 L210.83900269490655,53.143433277423355 L170.33337730621759,71.61204605845725 L193.05636696002534,84.76433673180784 C194.01069611802714,85.31341883079384 195.15508761036753,85.42551225637357 196.1978218927992,85.07204300809163 C197.24055617523086,84.7185737598097 198.08088848740104,83.93369260388742 198.50460773043037,82.91747545370444Z"/>
    <path id="path-31" fill-rule="evenodd" d="M200.08763168309235,79.89653807737858 L211.15560748544053,52.853212219436045 L168.39417296421095,70.49733335845953 L195.31877202570396,81.86872208506756 C196.2121079982564,82.24552829677233 197.21910424783545,82.24906177168658 198.115062559518,81.87853406049283 C199.01102087120057,81.50800634929908 199.72137971462354,80.79425271835771 200.08763168309235,79.89653807737858Z"/>
    <rect id="rect-32" opacity="1" x="183.72312157246677" y="60.99259370936352" width="4.603961328986497" height="5.105252247328599" rx="0" ry="0"/>
    <path id="path-33" fill-rule="evenodd" d="M187.56195465767044,62.16007387445143 C188.6502836251242,62.687748525338115 189.93649058666048,62.516254263799944 191.13695041742767,62.68115259220204 C192.22527938488142,62.83945498746804 193.25424495411045,63.28138250758565 194.34257392156422,63.43308896971557 C194.99759236993737,63.4645014061526 195.64864179104245,63.55277929376007 196.28837419670887,63.69692629515892 C196.347367767679,63.70839374499511 196.4021064895238,63.73576310591751 196.44667659197484,63.77607749279193 C196.5917871209687,63.9079961555136 196.4994440570635,64.15204568154869 196.36092946120576,64.29056027740644 C195.81346701091084,64.87759832651788 194.89003637185914,64.8710023933818 194.09852439552913,64.76546746320447 C193.31862348848128,64.55027414812567 192.48992249009672,64.59425548602876 191.73718033281128,64.89079019279005 C191.38200552815866,65.11272901451756 191.08918340872594,65.42144070632261 190.8863049582565,65.78783709929743 C190.79608962544418,65.95125296315118 190.68766579364203,66.10393142017872 190.5631042345884,66.24295648568719 C190.21528867442083,66.50144418145572 189.7701495586633,66.59095585147219 189.34945253754907,66.48700601172229 C188.86676591178497,66.41526810044672 188.4028674754211,66.24943001208474 187.9840943783798,65.9989069596521 C187.59818430859832,65.77669015221615 187.27394894775296,65.46152431195387 187.04087593991989,65.08207225373647 C186.70043609869842,64.29497772003323 186.61061942224194,63.42214386421257 186.78363454761262,62.58221359516079 "/>
    <path id="path-34" fill-rule="evenodd" d="M192.5682679079594,64.58078133539392 C192.28754601299104,64.66637417609502 192.01923201489117,64.78833508432226 191.77015999849334,64.94355765787853 C191.63705018888973,64.98655306016083 191.53801884489465,65.0987692075058 191.5119084791117,65.23619218531081 C191.48579811332877,65.37361516311586 191.53677212788892,65.51433232858632 191.64483726890774,65.60315097148688 C191.96914528476947,66.06596385747852 192.3239118358579,66.50666764765049 192.7067825038172,66.9223375987036 C192.91195660097495,67.07961394975773 193.03225835223452,67.32341154989322 193.03225835223452,67.58193091231195 C193.03225835223452,67.84045027473069 192.91195660097495,68.08424787486618 192.7067825038172,68.24152422592032 C191.902078661215,69.26389386201326 190.98524395529938,70.31264723065055 189.73201665944353,70.66223168686298 C189.46382389372712,70.76118516991804 189.16912185001343,70.76118516991804 188.90092908429702,70.66223168686298 C188.7665127312164,70.58380209997212 188.6461315653967,70.48348446178902 188.54474869494854,70.36541469573923 C187.30780338368155,69.2242138951764 186.3081254208222,67.85021705384727 185.60296251625525,66.32210768332 C185.53936887793014,66.16992190241044 185.49505228535168,66.0103821691279 185.47104385353356,65.84720049752198 C185.45737031351644,65.45775752232079 185.58373859331564,65.07631252959357 185.82722424288215,64.77206339634036 C186.10751300473734,64.36099990327327 186.48920928825055,64.02928765688677 186.93534100974418,63.80905715847216 C187.65868950373098,63.52553028582257 188.44695759904292,63.450130728879685 189.21093794169298,63.5913913649814 C189.972166162384,63.72962708301043 190.7472187190152,63.7761302364083 191.5195145393222,63.72990596083915 "/>
    <path id="path-35" fill-rule="evenodd" d="M192.30443058251288,66.47381414545043 C193.39935548310285,67.71384957503413 194.86365263931344,68.55153308331674 196.13007180144157,69.6068823850901 C196.7327095840132,70.04980081582866 197.20815271585948,70.64353601875631 197.50862182688314,71.32842093360792 C197.57546165309327,71.43536435810772 197.57546165309327,71.57106196532052 197.50862182688311,71.67800538982033 C197.45631103147676,71.72028166310781 197.39119282248788,71.74353816631812 197.3239356990728,71.74396472118116 C197.00500509742648,71.74283045502365 196.69330438471837,71.64886185781018 196.4268887925654,71.47353146260174 C194.63939091268662,70.4511618265088 193.25424495410897,68.91430940580133 191.39419180973331,68.02385843243006 C191.34802027778073,68.02385843243006 191.28865687955596,67.9710909673414 191.2754650132838,67.91832350225272 C191.26574505773794,67.88606001678414 191.26574505773794,67.85164799068005 191.2754650132838,67.81938450521146 C191.2754650132838,67.70065770876195 191.3150406121003,67.46980004899903 191.33482841150854,67.35107325254954 "/>
    <path id="path-36" fill-rule="evenodd" d="M191.74377626594364,68.35365508923178 C193.3795676836923,69.82454817857838 195.16706556357082,71.44055179691883 196.29497012984103,73.43252360401601 C196.39496542740764,73.59068452976085 196.46016933920552,73.7683089791413 196.48625219078747,73.9536023217666 C196.50539313085264,74.14859814483923 196.42012225249596,74.33920363763656 196.26199046416065,74.45489324010894 C196.11656163872124,74.54403336652766 195.93671199640625,74.55635183517937 195.78048734522656,74.48787290578936 C195.6335852834882,74.42189302499395 195.4995819667925,74.33032409191858 195.38473135706155,74.21743964720994 C193.70276840736034,72.73335469159117 192.31102651564677,70.95245274484866 190.66204323162597,69.43538812354947 C190.47076117067957,69.25729792887522 190.27288317659708,69.08580366733705 190.0947929819228,68.90111753952671 C190.02800349869256,68.8442901342766 189.98551746518856,68.76403873765791 189.97606618547331,68.67685581289987 C189.97606618547331,68.55153308331428 190.10798484819497,68.45919001940912 190.23330757778055,68.4262103537287 C190.35863030736613,68.39323068804829 190.4839530369517,68.4262103537287 190.6026798334012,68.36025102236788 "/>
    <path id="path-37" fill-rule="evenodd" d="M190.7280025629884,69.40900439100778 C191.76356406535353,71.05798767502867 193.14871002393116,72.42994176733404 194.12490812807152,74.12509658330752 C194.21488410884194,74.25813893599725 194.27558599152027,74.40876953375461 194.30299832274576,74.56702410342511 C194.32386942173918,74.75103585228246 194.26642235587155,74.9353451886078 194.14469592747975,75.07491095490353 C193.992783228695,75.23131994117588 193.76987938484308,75.2964379180315 193.5576578783683,75.24640521644173 C193.3794079646934,75.18772142690591 193.21849906765055,75.08573691469566 193.0893466257064,74.94958822531797 C192.63877525784653,74.48724879600046 192.232453662601,73.98376334102227 191.875694928667,73.4457154702909 L189.45498746772424,70.0422139720718 C189.3300790464997,69.8923397872037 189.23996918871586,69.71662556452517 189.1911501422809,69.52773118745729 "/>
    <path id="path-38" fill-rule="evenodd" d="M189.3626444038173,69.93008310875545 L190.24649944405243,71.36799653242169 C190.71941729446348,72.21820342056954 191.13372614433501,73.09971161178558 191.4865348736361,74.00636978685513 C191.54450859443284,74.12414605041485 191.58028419514343,74.2515966279464 191.59206980381342,74.38233797561189 C191.60095169551477,74.51215924435269 191.53416400082114,74.63545960378706 191.42057554227526,74.6989427661439 C191.26623481582425,74.7488320546295 191.09710605820507,74.7164986156729 190.97205208902156,74.61319563537482 C190.5264615788136,74.27627966681125 190.16519116996037,73.84049723613201 189.91670278724828,73.34018054011068 L187.61472212275527,69.5079433880461 C187.5030228752782,69.34057657740429 187.41011845529914,69.1614037674447 187.33769293103978,68.97367280402332 C187.3246254831255,68.93517588879025 187.3246254831255,68.89344292280688 187.33769293103975,68.85494600757382 C187.35841040117134,68.82428417537895 187.38848994355698,68.80114606585153 187.42344006180883,68.78898667621299 C187.58358291348569,68.72858834989835 187.7580555331605,68.71710988807763 187.92473098015114,68.75600701053257 "/>
    <path id="path-39" fill-rule="evenodd" d="M187.2123702014479,41.138834969753894 L168.82290861804688,46.765165934833156 C167.75639310408644,47.08866487276224 166.95856274985732,47.978843421165585 166.7533408991648,49.07428438094291 C166.54811904847236,50.16972534072025 166.9696193739142,51.28833545949234 167.84671051390652,51.975953112339155 L183.67695004050708,64.50822607089788 L187.4168441286665,61.487288694571625 L179.85790475471472,52.582778960858846 L189.70563292688752,50.1158999679636 C191.05766364676728,49.775641650957766 192.1865346746201,48.84829804413366 192.78281899564965,47.5880568774181 C193.37910331667922,46.32781571070254 193.38024595188125,44.866886329442835 192.78593370143852,43.60571396264914 C191.79686045598572,41.515074086919206 189.42490450537466,40.46523796203337 187.2123702014479,41.138834969753894Z"/>
    <path id="path-40" fill-rule="evenodd" d="M170.5840227653888,71.4207639975136 L195.31877202570203,81.86872208506996 C196.21294003296288,82.24515748689147 197.2206322302613,82.24775321307925 198.1167276873102,81.8759293719801 C199.01282314435912,81.50410553088099 199.7226501818006,80.78884622181357 200.08763168309045,79.88994214424488 L210.30473211088383,54.93093115730471 "/>
    <path id="path-41" fill-rule="evenodd" d="M174.9637223677471,93.02904095132317 L152.14179371689795,93.89970412528618 "/>
    <path id="path-42" fill-rule="evenodd" d="M168.16331530444606,67.49618378154128 L155.92126340387483,68.08981776378876 "/>
    <path id="path-43" fill-rule="evenodd" d="M154.6152686429307,79.26992442944766 L142.37321674235943,79.86355841169527 "/>
    <path id="path-44" fill-rule="evenodd" d="M104.23553134952728,39.2128224940152 C104.23553134952728,39.2128224940152 93.9920471891896,39.57559881649984 83.78813862766845,39.47006388632249 "/>
    <path id="path-45" fill-rule="evenodd" d="M149.14724007311548,46.791549667374966 C142.32704521040506,47.03559919341003 126.78702674179215,47.11475039104302 119.96683187908172,47.042195126546105 "/>
    <path id="path-46" fill-rule="evenodd" d="M20.322069992273768,54.825396227126916 C20.761297197050187,54.855101392221485 21.20202941471406,54.855101392221485 21.64125661949048,54.825396227126916 C23.62003656031556,54.62092229990832 25.2096564461117,53.1434332774256 26.98396245971819,52.23319450464605 C28.221617825474244,51.59878898541666 29.57911958782039,51.232443311141125 30.967906073912676,51.158057403464426 C32.860938883968664,51.07231027269534 34.819931025385486,51.53402559222119 36.633812637808475,50.98656314192625 C37.6693741401736,50.67655428453032 39.27218589224191,49.720143979798195 40.24838399638229,50.4456966247674 C40.64190986044285,50.71343184107996 40.7651163006031,51.23777552827355 40.532009121233884,51.6527523886707 C40.162636865613194,52.17383110642131 39.36452895614708,51.982549045474876 38.73131937508307,52.055104309971796 C38.293666402487645,52.133532614343714 37.8736549838843,52.28991984467475 37.49128394549935,52.516819629497654 C31.739630250834466,55.46520174132703 29.892768972731062,56.87013549931284 27.22801198575329,56.9690744963541 C25.55924090232414,57.035033827714926 23.930045417711497,56.46778357801173 22.248082468010185,56.61949004014166 C20.778571073473035,56.84642919656674 19.36852110488147,57.362027754239335 18.09924052541362,58.13655466144089 L20.322069992273768,54.825396227126916Z"/>
    <path id="path-47" fill-rule="evenodd" d="M33.38861353485484,51.63956052239531 C30.585341952019395,49.825678909972325 32.221133369768076,47.94583796618851 31.785801782786574,46.164936019445946 C31.694569746661664,45.82952995322142 31.568563768401734,45.50456716718264 31.409833594029816,45.195333848441656 C30.011495769180137,42.154608672707134 30.024687635452302,42.12162900702672 29.747658443736796,41.81821608276687 C27.84802970054477,42.444829730694806 25.63839209995683,45.20852571471382 26.073723686938337,47.965625765596755 L29.648719446695548,52.53001149576659 L33.38861353485484,51.63956052239531Z"/>
    <path id="path-48" fill-rule="evenodd" d="M34.85950662420203,51.40210692949842 C33.52103445914642,51.508132881115756 32.181042375490925,51.21673049306053 31.007481672729284,50.56442342121582 C30.148858145762603,50.04438181402734 29.413038110349383,49.34456520542332 28.85061153722998,48.513088215893816 C26.561822739009017,45.43938337447885 26.871831596404938,46.534308275068724 21.687428151443328,43.05825151235267 C20.693518488366415,42.50310897958756 19.813909474624754,41.76450599094951 19.095226428962526,40.881593577445074 C18.37140421245612,41.07895900076195 17.845799862672873,41.70442817700402 17.776039801745828,42.45142566383297 C17.538586208846823,44.786385994006565 20.084616399375044,46.5013286093883 20.71782598043906,47.28624465258225 C21.351035561503075,48.0711606957762 22.254678401146506,51.24380453423241 25.189868646703655,54.139419180973114 "/>
    <path id="path-49" fill-rule="evenodd" d="M24.536871266232072,55.71584720049747 C24.27219224377847,55.691465205954046 24.016579770461146,55.8192714426127 23.87727795262373,56.04564385730165 C23.026402578068968,57.450577615287415 23.105553775701967,57.36483048451833 22.248082468011123,57.655051542506 C21.963197689001287,57.735006097436184 21.691937379188644,57.85729558136812 21.443378625408947,58.01782786499059 C21.008047038427442,58.40039198688343 20.95527957333877,59.54148841942586 21.205925032509942,59.52170062001761 C21.282512810879464,59.47261481058101 21.349558167836893,59.410039144087406 21.403803026592445,59.337014492207274 C22.162335337242038,58.374008254339095 22.72298965380913,58.51911878333293 23.606844694044312,57.10099315907499 L24.477507868007326,55.72903906676964 L24.536871266232072,55.71584720049747Z"/>
    <path id="path-50" fill-rule="evenodd" d="M40.512221321827596,50.70293801707385 C41.00032037389774,51.191037069144045 42.10843714075972,51.54062152535649 41.9567306786298,51.76488325198334 C41.91055914667723,51.83084258334418 41.752256751411224,51.81105478393593 41.53459095792048,51.76488325198334 C41.10442904952544,51.76013584859179 40.67512581685549,51.8043939138155 40.25497992952035,51.89680191470502 C40.11906949823569,51.885616037339126 40.009278968884104,51.78131503445511 39.99114260407703,51.64615645553384 C39.99114260407703,51.30976386559356 40.45945385673893,51.217420801688384 40.512221321827596,50.89422007802028 C40.52402449217105,50.83100563213415 40.52402449217105,50.766152462959994 40.512221321827596,50.70293801707385Z"/>
    <ellipse id="ellipse-51" opacity="1" rx="0.1846861278102867" ry="0.18468612781034" cx="39.81305240940056" cy="50.78868514784189"/>
    <path id="path-52" fill-rule="evenodd" d="M310.5827035787615,13.963590449088965 L307.89156285923934,7.882140097619913 L308.50498464089515,7.882140097619913 C309.22671238515693,7.879360516421912 309.9266966271165,8.129021562720807 310.4837645817202,8.587904943180853 L313.4255507604135,10.995420537851356 C314.6547708197327,12.006729183309623 316.1291533200466,12.67566198437797 317.6997154325957,12.934624879859925 L318.5571867402866,13.079735408853765 L318.5571867402866,13.858055518911625 L310.5827035787615,13.963590449088965Z"/>
    <path id="path-53" fill-rule="evenodd" d="M308.2147635829152,13.989974181633825 C308.2147635829152,13.989974181633825 313.1880971675222,13.04675574317389 321.8485573751998,13.04675574317389 L335.4295837023957,13.04675574317389 C339.01117539528906,13.04675574317389 342.61255488759065,14.583608163881333 342.61255488759065,15.579594067429937 C342.61255488759065,16.57557997097854 339.59821344440047,16.62834743606721 336.77515406215673,16.62834743606721 L322.0134557036019,16.62834743606721 C313.0034110397118,16.62834743606721 308.16199611782656,14.418709835479248 308.16199611782656,14.418709835479248 L308.2147635829152,13.989974181633825Z"/>
    <path id="path-54" fill-rule="evenodd" d="M317.9305730923641,13.858055518910078 L319.44104178052726,14.181256242578172 L329.20302282193114,15.632361532516562 L323.9592559787446,15.632361532516562 L317.6403520343764,14.181256242578172 L317.9305730923641,13.858055518910078Z"/>
    <path id="path-55" fill-rule="evenodd" d="M316.50585153495456,12.321203098203684 L317.64035203436106,14.18125624257919 L319.441041780512,14.18125624257919 L316.9939505870248,12.29481936565935 L316.50585153495456,12.321203098203684Z"/>
    <path id="path-56" fill-rule="evenodd" d="M325.89186438760487,16.53600437216175 C325.91335380303457,17.127303021055027 326.40858269047624,17.590106207533296 326.9999811544669,17.571565874526907 L330.14624126037876,17.571565874526907 L330.14624126037876,15.50044286979659 L326.9999811544669,15.50044286979659 C326.71542837980354,15.48976691482585 326.4383842960836,15.593109401393217 326.23033771770247,15.787533882380318 C326.0222911393214,15.981958363367422 325.9004528579547,16.2513809441727 325.89186438760487,16.53600437216175Z"/>
    <path id="path-57" fill-rule="evenodd" d="M338.6483990727928,13.402936132521518 L338.6483990727928,14.306578972164916 L341.2867723272263,14.306578972164916 C340.44636322542493,13.901554731558868 339.56065161449163,13.598198504814228 338.6483990727928,13.402936132521518Z"/>
  </defs>
  <g opacity="1">
    <g opacity="1">
      <use xlink:href="#path-1" fill="rgb(242,245,248)" fill-opacity="1"/>
    </g>
    <g opacity="1">
      <use xlink:href="#path-2" fill="rgb(242,245,248)" fill-opacity="1"/>
    </g>
    <g opacity="1">
      <use xlink:href="#path-3" fill="rgb(242,245,248)" fill-opacity="1"/>
    </g>
    <g opacity="1">
      <use xlink:href="#path-4" fill="rgb(47,56,73)" fill-opacity="1"/>
    </g>
    <g opacity="1">
      <use xlink:href="#path-5" fill="rgb(69,77,94)" fill-opacity="1"/>
    </g>
    <g opacity="1">
      <use xlink:href="#path-6" fill="rgb(186,193,207)" fill-opacity="1"/>
    </g>
    <g opacity="1">
      <use xlink:href="#path-7" fill="rgb(138,146,163)" fill-opacity="1"/>
    </g>
    <g opacity="1">
      <use xlink:href="#path-8" fill="rgb(69,77,94)" fill-opacity="1"/>
    </g>
    <g opacity="1">
      <use xlink:href="#path-9" fill="rgb(255,255,255)" fill-opacity="1"/>
    </g>
    <g opacity="1">
      <use xlink:href="#path-10" fill="rgb(255,255,255)" fill-opacity="1"/>
    </g>
    <g opacity="1">
      <use xlink:href="#path-11" fill="rgb(186,193,207)" fill-opacity="1"/>
    </g>
    <g opacity="1">
      <use xlink:href="#path-12" fill="rgb(138,146,163)" fill-opacity="1"/>
    </g>
    <g opacity="1">
      <use xlink:href="#path-13" fill="rgb(186,193,207)" fill-opacity="1"/>
    </g>
    <g opacity="1">
      <use xlink:href="#path-14" fill="rgb(138,146,163)" fill-opacity="1"/>
    </g>
    <g opacity="1">
      <use xlink:href="#path-15" fill="rgb(138,146,163)" fill-opacity="1"/>
    </g>
    <g opacity="1">
      <use xlink:href="#path-16" fill="rgb(240,186,188)" fill-opacity="1"/>
    </g>
    <g opacity="1">
      <use xlink:href="#path-17" fill="rgb(161,12,80)" fill-opacity="1"/>
    </g>
    <g opacity="1">
      <use xlink:href="#path-18" fill="rgb(69,77,94)" fill-opacity="1"/>
    </g>
    <g opacity="1">
      <use xlink:href="#path-19" fill="rgb(47,56,73)" fill-opacity="1"/>
    </g>
    <g opacity="1">
      <use xlink:href="#path-20" fill="rgb(228,58,112)" fill-opacity="1"/>
    </g>
    <g opacity="1">
      <use xlink:href="#path-21" fill="rgb(186,193,207)" fill-opacity="1"/>
    </g>
    <g opacity="1">
      <use xlink:href="#path-22" fill="rgb(138,146,163)" fill-opacity="1"/>
    </g>
    <g opacity="1">
      <use xlink:href="#path-23" fill="rgb(206,89,158)" fill-opacity="1"/>
    </g>
    <g opacity="1">
      <use xlink:href="#path-24" fill="rgb(228,58,112)" fill-opacity="1"/>
    </g>
    <g opacity="1">
      <use xlink:href="#path-25" fill="rgb(138,146,163)" fill-opacity="1"/>
    </g>
    <g opacity="1">
      <use xlink:href="#path-26" fill="rgb(161,12,80)" fill-opacity="1"/>
    </g>
    <g opacity="1">
      <use xlink:href="#path-27" fill="rgb(47,56,73)" fill-opacity="1"/>
    </g>
    <g opacity="1">
      <use xlink:href="#path-28" fill="rgb(25,34,52)" fill-opacity="1"/>
    </g>
    <g opacity="1">
      <use xlink:href="#path-29" fill="rgb(255,255,255)" fill-opacity="1"/>
    </g>
    <g opacity="1">
      <use xlink:href="#path-30" fill="rgb(138,146,163)" fill-opacity="1"/>
    </g>
    <g opacity="1">
      <use xlink:href="#path-31" fill="rgb(255,255,255)" fill-opacity="1"/>
    </g>
    <g opacity="1">
      <use xlink:href="#rect-32" fill="rgb(69,77,94)" fill-opacity="1"/>
    </g>
    <g opacity="1">
      <use xlink:href="#path-33" fill="rgb(69,77,94)" fill-opacity="1"/>
    </g>
    <g opacity="1">
      <use xlink:href="#path-34" fill="rgb(69,77,94)" fill-opacity="1"/>
    </g>
    <g opacity="1">
      <use xlink:href="#path-35" fill="rgb(69,77,94)" fill-opacity="1"/>
    </g>
    <g opacity="1">
      <use xlink:href="#path-36" fill="rgb(69,77,94)" fill-opacity="1"/>
    </g>
    <g opacity="1">
      <use xlink:href="#path-37" fill="rgb(69,77,94)" fill-opacity="1"/>
    </g>
    <g opacity="1">
      <use xlink:href="#path-38" fill="rgb(69,77,94)" fill-opacity="1"/>
    </g>
    <g opacity="1">
      <use xlink:href="#path-39" fill="rgb(186,193,207)" fill-opacity="1"/>
    </g>
    <g opacity="1">
      <use xlink:href="#path-40" fill-opacity="0" stroke="rgb(223,228,234)" stroke-opacity="1" stroke-width="1"/>
    </g>
    <g opacity="1">
      <use xlink:href="#path-41" fill="rgb(0,0,0)" fill-opacity="1"/>
    </g>
    <g opacity="1">
      <use xlink:href="#path-42" fill="rgb(0,0,0)" fill-opacity="1"/>
    </g>
    <g opacity="1">
      <use xlink:href="#path-43" fill-opacity="0" stroke="rgb(186,193,207)" stroke-opacity="1" stroke-width="2"/>
    </g>
    <g opacity="1">
      <use xlink:href="#path-44" fill="rgb(0,0,0)" fill-opacity="1"/>
      <use xlink:href="#path-44" fill-opacity="0" stroke="rgb(228,58,112)" stroke-opacity="1" stroke-width="1"/>
    </g>
    <g opacity="1">
      <use xlink:href="#path-45" fill="rgb(0,0,0)" fill-opacity="1"/>
      <use xlink:href="#path-45" fill-opacity="0" stroke="rgb(228,58,112)" stroke-opacity="1" stroke-width="1"/>
    </g>
    <g opacity="1">
      <use xlink:href="#path-46" fill="rgb(233,237,241)" fill-opacity="1"/>
    </g>
    <g opacity="1">
      <use xlink:href="#path-47" fill="rgb(223,228,234)" fill-opacity="1"/>
    </g>
    <g opacity="1">
      <use xlink:href="#path-48" fill="rgb(233,237,241)" fill-opacity="1"/>
    </g>
    <g opacity="1">
      <use xlink:href="#path-49" fill="rgb(233,237,241)" fill-opacity="1"/>
    </g>
    <g opacity="1">
      <use xlink:href="#path-50" fill="rgb(186,193,207)" fill-opacity="1"/>
    </g>
    <g opacity="1">
      <use xlink:href="#ellipse-51" fill="rgb(186,193,207)" fill-opacity="1"/>
    </g>
    <g opacity="1">
      <use xlink:href="#path-52" fill="rgb(223,228,234)" fill-opacity="1"/>
    </g>
    <g opacity="1">
      <use xlink:href="#path-53" fill="rgb(233,237,241)" fill-opacity="1"/>
    </g>
    <g opacity="1">
      <use xlink:href="#path-54" fill="rgb(223,228,234)" fill-opacity="1"/>
    </g>
    <g opacity="1">
      <use xlink:href="#path-55" fill="rgb(242,245,248)" fill-opacity="1"/>
    </g>
    <g opacity="1">
      <use xlink:href="#path-56" fill="rgb(242,245,248)" fill-opacity="1"/>
    </g>
    <g opacity="1">
      <use xlink:href="#path-57" fill="rgb(223,228,234)" fill-opacity="1"/>
    </g>
  </g>
</svg>